<?xml version="1.0" encoding="utf-8"?>
<!-- Generator: Adobe Illustrator 27.6.1, SVG Export Plug-In . SVG Version: 6.00 Build 0)  -->
<svg version="1.1" id="Capa_1" xmlns="http://www.w3.org/2000/svg" xmlns:xlink="http://www.w3.org/1999/xlink" x="0px" y="0px"
	 viewBox="0 0 1080 1080" style="enable-background:new 0 0 1080 1080;" xml:space="preserve">
<style type="text/css">
	.st0{fill:#342155;}
	.st1{fill:#EE7E88;}
	.st2{fill:#342155;stroke:#342155;stroke-width:1.0204;stroke-miterlimit:10;}
</style>
<g>
	<g>
		<g>
			<path class="st0" d="M198.14,466.82c6.78,0,12.73,0.73,17.88,2.18c5.14,1.45,9.14,3.45,11.98,5.99c2.84,2.54,4.26,5.57,4.26,9.07
				c0,2.3-0.7,4.48-2.09,6.53c-1.39,2.06-3.42,3.09-6.08,3.09c-1.94,0-3.51-0.3-4.72-0.91c-1.21-0.6-2.3-1.33-3.27-2.18
				c-0.97-0.85-2.12-1.63-3.45-2.36c-1.21-0.73-3.09-1.3-5.63-1.72c-2.54-0.42-4.54-0.63-5.99-0.63c-6.29,0-11.65,1.36-16.06,4.08
				c-4.42,2.72-7.81,6.41-10.16,11.07c-2.36,4.66-3.54,10.01-3.54,16.06c0,5.93,1.21,11.25,3.63,15.97
				c2.42,4.72,5.78,8.44,10.07,11.16c4.29,2.72,9.23,4.08,14.79,4.08c3.27,0,6.02-0.21,8.26-0.63c2.24-0.42,4.08-1,5.54-1.72
				c1.82-1.09,3.36-2.18,4.63-3.27c1.27-1.09,3.18-1.63,5.72-1.63c3.02,0,5.32,0.94,6.9,2.81c1.57,1.88,2.36,4.21,2.36,6.99
				c0,2.9-1.66,5.6-4.99,8.08c-3.33,2.48-7.71,4.48-13.16,5.99c-5.45,1.51-11.38,2.27-17.79,2.27c-9.44,0-17.67-2.21-24.68-6.63
				c-7.02-4.42-12.43-10.41-16.25-17.97c-3.81-7.56-5.72-16.06-5.72-25.5c0-9.8,2.03-18.45,6.08-25.96
				c4.05-7.5,9.65-13.43,16.79-17.79C180.6,469,188.82,466.82,198.14,466.82z"/>
		</g>
		<g>
			<path class="st0" d="M259.86,565.38c-2.9,0-5.35-1-7.35-3s-3-4.51-3-7.53v-75.51c0-3.02,1-5.54,3-7.53c2-2,4.45-3,7.35-3
				c3.02,0,5.5,1,7.44,3c1.93,2,2.9,4.51,2.9,7.53v18.15l-1.45-10.89c1.21-3.02,2.87-5.78,4.99-8.26c2.11-2.48,4.51-4.57,7.17-6.26
				c2.66-1.69,5.56-3,8.71-3.9c3.14-0.91,6.35-1.36,9.62-1.36c3.51,0,6.47,0.97,8.89,2.9c2.42,1.94,3.63,4.3,3.63,7.08
				c0,3.75-0.97,6.44-2.9,8.08c-1.94,1.63-4.06,2.45-6.35,2.45c-2.18,0-4.17-0.39-5.99-1.18c-1.82-0.79-3.87-1.18-6.17-1.18
				c-2.3,0-4.63,0.54-6.99,1.63c-2.36,1.09-4.54,2.81-6.53,5.17c-2,2.36-3.6,5.17-4.81,8.44c-1.21,3.27-1.82,7.08-1.82,11.43v43.2
				c0,3.03-0.97,5.54-2.9,7.53C265.36,564.38,262.88,565.38,259.86,565.38z"/>
		</g>
		<g>
			<path class="st0" d="M368.76,567.19c-10.16,0-19-2.12-26.5-6.35c-7.5-4.23-13.28-10.04-17.33-17.42
				c-4.06-7.38-6.08-15.73-6.08-25.05c0-10.89,2.18-20.15,6.53-27.77c4.36-7.62,10.07-13.49,17.15-17.61
				c7.08-4.11,14.55-6.17,22.42-6.17c6.17,0,11.98,1.24,17.42,3.72c5.45,2.48,10.26,5.9,14.43,10.25c4.17,4.36,7.5,9.41,9.98,15.16
				c2.48,5.75,3.72,11.89,3.72,18.42c-0.12,2.78-1.21,5.05-3.27,6.81c-2.06,1.76-4.42,2.63-7.08,2.63h-69.7l-5.26-17.24h67.16
				l-3.81,3.45v-4.72c-0.24-3.75-1.54-7.08-3.9-9.98c-2.36-2.9-5.26-5.2-8.71-6.9c-3.45-1.69-7.11-2.54-10.98-2.54
				c-3.63,0-7.05,0.52-10.26,1.54c-3.21,1.03-5.99,2.72-8.35,5.08c-2.36,2.36-4.24,5.54-5.63,9.53c-1.39,3.99-2.09,8.96-2.09,14.88
				c0,6.66,1.36,12.31,4.08,16.97c2.72,4.66,6.29,8.23,10.71,10.71c4.42,2.48,9.23,3.72,14.43,3.72c4.48,0,8.08-0.39,10.8-1.18
				c2.72-0.79,4.93-1.75,6.63-2.9c1.69-1.15,3.27-2.15,4.72-3c2.06-1.09,3.99-1.63,5.81-1.63c2.54,0,4.66,0.85,6.35,2.54
				c1.69,1.7,2.54,3.69,2.54,5.99c0,3.15-1.57,5.93-4.72,8.35c-3.27,2.9-7.75,5.42-13.43,7.53
				C380.86,566.13,374.93,567.19,368.76,567.19z"/>
		</g>
		<g>
			<path class="st0" d="M509.79,467.18c3.02,0,5.5,0.97,7.44,2.9c1.93,1.94,2.9,4.42,2.9,7.44v77.32c0,3.03-0.97,5.54-2.9,7.53
				c-1.94,2-4.42,3-7.44,3c-2.9,0-5.33-1-7.26-3c-1.94-2-2.9-4.51-2.9-7.53v-10.16l3.81,1.27c0,1.81-0.85,3.9-2.54,6.26
				c-1.7,2.36-4.02,4.66-6.99,6.9c-2.97,2.24-6.44,4.15-10.44,5.72s-8.29,2.36-12.89,2.36c-8.35,0-15.88-2.15-22.6-6.44
				c-6.72-4.29-12.04-10.22-15.97-17.79c-3.93-7.56-5.9-16.18-5.9-25.86c0-9.92,1.96-18.63,5.9-26.14c3.93-7.5,9.19-13.4,15.79-17.7
				c6.59-4.29,13.94-6.44,22.05-6.44c5.2,0,9.98,0.82,14.34,2.45c4.36,1.63,8.17,3.69,11.43,6.17c3.27,2.48,5.78,5.05,7.53,7.71
				c1.75,2.66,2.63,4.96,2.63,6.9l-6.17,1.81v-14.34c0-2.9,0.97-5.35,2.9-7.35C504.46,468.18,506.89,467.18,509.79,467.18z
				 M473.13,548.32c5.44,0,10.22-1.36,14.34-4.08c4.11-2.72,7.32-6.47,9.62-11.25c2.3-4.78,3.45-10.07,3.45-15.88
				c0-5.93-1.15-11.25-3.45-15.97c-2.3-4.72-5.51-8.44-9.62-11.16c-4.11-2.72-8.89-4.08-14.34-4.08c-5.33,0-10.05,1.36-14.16,4.08
				c-4.12,2.72-7.32,6.44-9.62,11.16c-2.3,4.72-3.45,10.05-3.45,15.97c0,5.81,1.15,11.1,3.45,15.88c2.3,4.78,5.5,8.53,9.62,11.25
				C463.08,546.96,467.8,548.32,473.13,548.32z"/>
		</g>
		<g>
			<path class="st0" d="M544.64,470.45h43.02c2.78,0,5.08,0.91,6.9,2.72c1.81,1.82,2.72,4.12,2.72,6.9c0,2.66-0.91,4.87-2.72,6.63
				c-1.82,1.76-4.12,2.63-6.9,2.63h-43.02c-2.66,0-4.93-0.91-6.81-2.72c-1.88-1.81-2.81-4.11-2.81-6.9c0-2.66,0.94-4.87,2.81-6.63
				C539.71,471.33,541.98,470.45,544.64,470.45z M564.06,447.4c3.02,0,5.47,1,7.35,2.99c1.87,2,2.81,4.51,2.81,7.53v81.86
				c0,1.82,0.33,3.3,1,4.45c0.66,1.15,1.6,1.97,2.81,2.45c1.21,0.48,2.48,0.73,3.81,0.73c1.33,0,2.6-0.24,3.81-0.73
				c1.21-0.48,2.54-0.73,3.99-0.73c1.69,0,3.2,0.76,4.54,2.27c1.33,1.52,2,3.54,2,6.08c0,3.27-1.76,5.93-5.26,7.99
				c-3.51,2.06-7.32,3.09-11.44,3.09c-2.42,0-5.11-0.21-8.08-0.63c-2.97-0.42-5.78-1.42-8.44-3c-2.66-1.57-4.9-4.02-6.72-7.35
				c-1.82-3.33-2.72-7.9-2.72-13.7v-82.77c0-3.02,1-5.54,2.99-7.53C558.52,448.4,561.03,447.4,564.06,447.4z"/>
		</g>
		<g>
			<path class="st0" d="M636.84,554.83c0,3.03-1,5.55-2.99,7.55c-2,2-4.45,3-7.35,3c-3.03,0-5.51-1-7.44-3
				c-1.94-2-2.9-4.51-2.9-7.55v-76.01c0-2.91,0.97-5.36,2.9-7.36c1.93-2,4.42-3,7.44-3c2.9,0,5.35,1,7.35,3c2,2,2.99,4.46,2.99,7.36
				V554.83z"/>
		</g>
		<g>
			<path class="st0" d="M663.52,468.45c2.06,0,4.02,0.54,5.9,1.63c1.87,1.09,3.24,2.72,4.08,4.9l27.23,62.62l-3.81,1.82l27.77-64.25
				c1.93-4.48,5.02-6.65,9.26-6.53c2.78,0,5.08,0.91,6.9,2.72c1.81,1.81,2.72,3.99,2.72,6.53c0,0.85-0.15,1.72-0.45,2.63
				c-0.3,0.91-0.64,1.79-1,2.63l-34.12,75.69c-1.81,4.11-4.72,6.29-8.71,6.53c-2.18,0.36-4.27-0.03-6.26-1.18
				c-2-1.15-3.54-2.93-4.63-5.35l-33.94-75.69c-0.24-0.6-0.48-1.36-0.73-2.27c-0.24-0.91-0.36-1.96-0.36-3.18
				c0-2.06,0.91-4.11,2.72-6.17C657.9,469.48,660.38,468.45,663.52,468.45z"/>
		</g>
		<g>
			<path class="st0" d="M839.77,467.18c3.02,0,5.5,0.97,7.44,2.9c1.93,1.94,2.9,4.42,2.9,7.44v77.32c0,3.03-0.97,5.54-2.9,7.53
				c-1.94,2-4.42,3-7.44,3c-2.9,0-5.33-1-7.26-3c-1.94-2-2.9-4.51-2.9-7.53v-10.16l3.81,1.27c0,1.81-0.85,3.9-2.54,6.26
				c-1.7,2.36-4.02,4.66-6.99,6.9c-2.97,2.24-6.44,4.15-10.44,5.72c-3.99,1.57-8.29,2.36-12.89,2.36c-8.35,0-15.88-2.15-22.6-6.44
				c-6.72-4.29-12.04-10.22-15.97-17.79c-3.93-7.56-5.9-16.18-5.9-25.86c0-9.92,1.96-18.63,5.9-26.14c3.93-7.5,9.19-13.4,15.79-17.7
				c6.59-4.29,13.94-6.44,22.05-6.44c5.2,0,9.98,0.82,14.34,2.45c4.36,1.63,8.17,3.69,11.43,6.17c3.27,2.48,5.78,5.05,7.53,7.71
				c1.75,2.66,2.63,4.96,2.63,6.9l-6.17,1.81v-14.34c0-2.9,0.97-5.35,2.9-7.35C834.44,468.18,836.87,467.18,839.77,467.18z
				 M803.1,548.32c5.44,0,10.22-1.36,14.34-4.08c4.11-2.72,7.32-6.47,9.62-11.25c2.3-4.78,3.45-10.07,3.45-15.88
				c0-5.93-1.15-11.25-3.45-15.97c-2.3-4.72-5.51-8.44-9.62-11.16c-4.11-2.72-8.89-4.08-14.34-4.08c-5.33,0-10.05,1.36-14.16,4.08
				c-4.12,2.72-7.32,6.44-9.62,11.16c-2.3,4.72-3.45,10.05-3.45,15.97c0,5.81,1.15,11.1,3.45,15.88c2.3,4.78,5.5,8.53,9.62,11.25
				C793.06,546.96,797.78,548.32,803.1,548.32z"/>
		</g>
	</g>
	<circle class="st1" cx="626.5" cy="449.1" r="11.43"/>
	<g>
		<path class="st2" d="M765.69,626.2l5.61-8.07l-8.59,3.88l-1.4-0.98l0.58-9.21l-5.51,7.89l-2.92-2.04l9.38-13.42l2.57,1.79
			l-0.8,11.85l10.78-4.89l2.55,1.78l-9.34,13.46L765.69,626.2z"/>
		<path class="st2" d="M805.41,638.06l-0.69,2.96l-12.35-2.89l3.73-15.95l12.05,2.82l-0.69,2.96l-8.39-1.96l-0.81,3.46l7.4,1.73
			l-0.67,2.87l-7.4-1.73l-0.87,3.69L805.41,638.06z"/>
		<path class="st2" d="M827.21,626.11l7.37-1.03c1.76-0.25,3.36-0.13,4.81,0.36c1.45,0.48,2.63,1.28,3.55,2.4
			c0.92,1.12,1.49,2.48,1.72,4.11c0.23,1.62,0.05,3.1-0.53,4.42c-0.58,1.33-1.5,2.42-2.76,3.28c-1.26,0.86-2.77,1.41-4.53,1.66
			l-7.37,1.03L827.21,626.11z M836.24,638.24c1.62-0.23,2.85-0.86,3.69-1.9c0.84-1.04,1.15-2.33,0.94-3.87
			c-0.22-1.55-0.87-2.7-1.96-3.47s-2.45-1.04-4.07-0.81l-3.43,0.48l1.41,10.06L836.24,638.24z"/>
		<path class="st2" d="M861.28,617.13l3.39-1.7l7.33,14.65l-3.39,1.7L861.28,617.13z"/>
		<path class="st2" d="M898.08,605.98l-5.39,5.36l1.44,3.51l-2.76,2.74L885,600.83l2.66-2.64l16.74,6.46l-2.82,2.8L898.08,605.98z
			 M895.2,604.78l-6.26-2.62l2.58,6.28L895.2,604.78z"/>
		<path class="st2" d="M910.66,556.49l0.68-3.73l13.07,2.39l1.48-8.08l3.04,0.56l-2.16,11.81L910.66,556.49z"/>
		<path class="st2" d="M923.72,513.72l1.31,7.49l3.71,0.82l0.67,3.83l-17.39-4.36l-0.65-3.69l14.87-10.04l0.69,3.92L923.72,513.72z
			 M921.09,515.39l-5.73,3.64l6.63,1.47L921.09,515.39z"/>
		<path class="st2" d="M904.22,477.32c0.32-0.81,0.91-1.48,1.78-2.01c1.23-0.74,2.46-0.84,3.7-0.28c1.24,0.55,2.41,1.75,3.51,3.58
			l4.38,7.25l-14.02,8.47l-4.14-6.85c-1.03-1.71-1.5-3.22-1.39-4.53c0.1-1.31,0.71-2.3,1.84-2.98c0.68-0.41,1.39-0.62,2.12-0.61
			c0.73,0,1.43,0.21,2.09,0.61C903.86,479.02,903.9,478.14,904.22,477.32z M904.07,489.63l3.3-2l-1.95-3.23
			c-0.48-0.8-0.99-1.32-1.52-1.57c-0.53-0.25-1.07-0.2-1.62,0.13c-0.55,0.33-0.83,0.79-0.86,1.36c-0.02,0.58,0.21,1.27,0.69,2.07
			L904.07,489.63z M909.33,478.65c-0.54-0.27-1.11-0.22-1.69,0.14c-1.16,0.7-1.22,1.91-0.18,3.64l2.29,3.78l3.47-2.09l-2.29-3.78
			C910.4,479.48,909.88,478.92,909.33,478.65z"/>
	</g>
</g>
</svg>
