<?xml version="1.0" encoding="utf-8"?>
<!-- Generator: Adobe Illustrator 27.6.1, SVG Export Plug-In . SVG Version: 6.00 Build 0)  -->
<svg version="1.1" id="Capa_1" xmlns="http://www.w3.org/2000/svg" xmlns:xlink="http://www.w3.org/1999/xlink" x="0px" y="0px"
	 viewBox="0 0 1080 1080" style="enable-background:new 0 0 1080 1080;" xml:space="preserve">
<style type="text/css">
	.st0{fill:#342155;}
	.st1{fill:#EE7E88;}
	.st2{fill:#342155;stroke:#342155;stroke-width:1.0204;stroke-miterlimit:10;}
</style>
<g>
	<g>
		<path class="st0" d="M516.15,389.27c20.35,0,38.25,2.18,53.7,6.54c15.44,4.36,27.44,10.36,35.98,17.99
			c8.53,7.63,12.81,16.72,12.81,27.25c0,6.91-2.09,13.45-6.27,19.62c-4.18,6.18-10.27,9.27-18.26,9.27c-5.82,0-10.54-0.9-14.17-2.73
			c-3.64-1.81-6.91-3.99-9.81-6.54c-2.91-2.54-6.36-4.91-10.36-7.09c-3.64-2.18-9.27-3.9-16.9-5.18
			c-7.63-1.27-13.63-1.91-17.99-1.91c-18.9,0-34.98,4.09-48.24,12.27c-13.27,8.18-23.44,19.27-30.53,33.25
			c-7.09,13.99-10.63,30.07-10.63,48.24c0,17.81,3.63,33.8,10.9,47.97c7.26,14.17,17.35,25.35,30.25,33.52
			c12.89,8.18,27.71,12.27,44.43,12.27c9.81,0,18.08-0.63,24.8-1.91c6.72-1.27,12.27-3,16.63-5.18c5.45-3.27,10.09-6.54,13.9-9.81
			c3.82-3.27,9.54-4.91,17.17-4.91c9.08,0,15.99,2.82,20.71,8.45c4.72,5.64,7.09,12.63,7.09,20.99c0,8.72-5,16.81-14.99,24.26
			c-10,7.45-23.17,13.45-39.52,17.99c-16.36,4.54-34.17,6.82-53.42,6.82c-28.35,0-53.07-6.63-74.14-19.9
			c-21.08-13.26-37.34-31.25-48.79-53.97c-11.45-22.71-17.17-48.24-17.17-76.59c0-29.44,6.08-55.41,18.26-77.95
			c12.17-22.53,28.98-40.34,50.42-53.42C463.45,395.81,488.16,389.27,516.15,389.27z"/>
	</g>
	<g>
		<circle class="st1" cx="677.5" cy="643.53" r="29.17"/>
	</g>
</g>
</svg>
