<?xml version="1.0" encoding="utf-8"?>
<!-- Generator: Adobe Illustrator 25.2.1, SVG Export Plug-In . SVG Version: 6.00 Build 0)  -->
<svg version="1.1" id="Capa_1" xmlns="http://www.w3.org/2000/svg" xmlns:xlink="http://www.w3.org/1999/xlink" x="0px" y="0px"
	 viewBox="0 0 1080 1080" style="enable-background:new 0 0 1080 1080;" xml:space="preserve">
<style type="text/css">
	.st0{fill:none;}
	.st1{fill:none;stroke:#FFFFFF;stroke-linecap:round;stroke-linejoin:round;stroke-miterlimit:10;}
	.st2{display:none;fill:url(#SVGID_1_);}
	.st3{opacity:0.61;clip-path:url(#SVGID_3_);}
	.st4{fill:#37005B;}
	.st5{clip-path:url(#SVGID_3_);}
	.st6{fill:#FFFFFF;}
	.st7{fill:#010000;}
	.st8{clip-path:url(#SVGID_3_);fill:#FF8189;}
	.st9{opacity:0.24;clip-path:url(#SVGID_3_);}
	.st10{display:none;fill:#FF8189;}
	.st11{fill:#FF8189;}
	.st12{fill:#090909;}
	.st13{fill:#FFF8F2;}
	.st14{fill:#FBEEE1;}
	.st15{clip-path:url(#SVGID_3_);fill:#33C4B9;}
	.st16{clip-path:url(#SVGID_5_);}
	.st17{fill:#8854FF;}
	.st18{clip-path:url(#XMLID_5_);}
	.st19{clip-path:url(#XMLID_6_);}
	.st20{fill:#B45EDD;}
	.st21{clip-path:url(#SVGID_3_);fill:#EFD200;}
	.st22{clip-path:url(#SVGID_3_);stroke:#000000;stroke-linecap:round;stroke-linejoin:round;stroke-miterlimit:10;}
	.st23{fill:#F9F7F5;}
	.st24{clip-path:url(#SVGID_3_);fill:#010000;}
	.st25{fill:#EFD200;}
	.st26{clip-path:url(#SVGID_3_);fill:#B45EDD;}
	.st27{clip-path:url(#SVGID_3_);fill:url(#SVGID_10_);}
	.st28{clip-path:url(#SVGID_3_);fill:none;}
</style>
<pattern  width="51.1" height="50.82" patternUnits="userSpaceOnUse" id="Unnamed_Pattern_3" viewBox="9.42 -61.88 51.1 50.82" style="overflow:visible;">
	<g>
		<rect x="9.42" y="-61.88" class="st0" width="51.1" height="50.82"/>
		<g>
			<polygon class="st1" points="60.52,-15.94 69.43,-15.94 64.98,-8.22 60.52,-0.5 56.06,-8.22 51.6,-15.94 			"/>
		</g>
		<g>
			<polygon class="st1" points="9.42,-15.94 18.33,-15.94 13.88,-8.22 9.42,-0.5 4.96,-8.22 0.5,-15.94 			"/>
		</g>
		<g>
			<polygon class="st1" points="60.52,-66.76 69.43,-66.76 64.98,-59.04 60.52,-51.32 56.06,-59.04 51.6,-66.76 			"/>
		</g>
		<g>
			<polygon class="st1" points="9.42,-66.76 18.33,-66.76 13.88,-59.04 9.42,-51.32 4.96,-59.04 0.5,-66.76 			"/>
			<polygon class="st1" points="34.97,-39.29 28.93,-39.29 31.95,-44.52 34.97,-49.75 37.99,-44.52 41.01,-39.29 			"/>
		</g>
	</g>
</pattern>
<pattern  id="SVGID_1_" xlink:href="#Unnamed_Pattern_3" patternTransform="matrix(0.8385 0 0 0.8385 -1159.8719 -1056.7418)">
</pattern>
<path class="st2" d="M837.99,717.59l-43.08,142.85l55.21,16.6l-236.95-69.66c-5.65,50.65-19.69,94.13-57.22,128.62
	c-0.83,0.76,41.74,18.12,42.79,18.53l185.45,72.78c56.66,22.24,120.6-5.79,142.66-62.52l22.62-58.18"/>
<g>
	<defs>
		<rect id="SVGID_2_" y="-6" width="1080" height="1095"/>
	</defs>
	<clipPath id="SVGID_3_">
		<use xlink:href="#SVGID_2_"  style="overflow:visible;"/>
	</clipPath>
	<g class="st3">
		
			<ellipse transform="matrix(0.7071 -0.7071 0.7071 0.7071 -620.2755 350.075)" class="st4" cx="112.44" cy="923.78" rx="196.34" ry="203.29"/>
		
			<ellipse transform="matrix(0.7071 -0.7071 0.7071 0.7071 389.6742 480.7333)" class="st4" cx="775.13" cy="-230.01" rx="211.16" ry="218.64"/>
		
			<ellipse transform="matrix(0.7071 -0.7071 0.7071 0.7071 -555.052 899.8094)" class="st4" cx="808.64" cy="1119.91" rx="274.45" ry="284.16"/>
		
			<ellipse transform="matrix(0.7071 -0.7071 0.7071 0.7071 19.1309 77.9331)" class="st4" cx="103.64" cy="15.87" rx="57.01" ry="59.03"/>
		
			<ellipse transform="matrix(0.7071 -0.7071 0.7071 0.7071 162.5679 574.2264)" class="st4" cx="774.44" cy="90.88" rx="37.62" ry="38.95"/>
		
			<ellipse transform="matrix(0.7071 -0.7071 0.7071 0.7071 164.0423 65.1784)" class="st4" cx="160.7" cy="-165.43" rx="24.77" ry="25.65"/>
	</g>
	<g class="st5">
		<defs>
			<path id="XMLID_00000072282539152651669590000007037328192303619486_" d="M352.16,423.48c-19.37,57.93-23.04,108.5-8.19,112.94
				c14.85,4.44,42.59-38.92,61.97-96.86c19.37-57.93,23.04-108.5,8.19-112.94C399.27,322.18,371.53,365.55,352.16,423.48z"/>
		</defs>
		<clipPath id="XMLID_3_">
			<use xlink:href="#XMLID_00000072282539152651669590000007037328192303619486_"  style="overflow:visible;"/>
		</clipPath>
	</g>
	<g class="st5">
		<path d="M548.04,738.78c-32.4-0.78-58.47-9.77-58.22-20.1c0.25-10.32,26.72-18.06,59.12-17.29c32.4,0.78,58.47,9.77,58.22,20.09
			C606.91,731.82,580.44,739.56,548.04,738.78z"/>
		<path d="M552.34,740.57c-1.45,0-2.9-0.02-4.34-0.05c-29.29-0.7-60.24-8.61-59.92-21.88c0.32-13.27,31.64-19.65,60.9-18.99
			c29.28,0.7,60.24,8.61,59.92,21.88C608.6,734.15,580.29,740.57,552.34,740.57z M544.44,703.09c-31.17,0-52.7,7.98-52.88,15.64
			c-0.19,8.02,22.97,17.51,56.52,18.31l0,0c33.52,0.79,57.14-7.57,57.33-15.59c0.19-8.02-22.97-17.51-56.52-18.31
			C547.39,703.11,545.91,703.09,544.44,703.09z"/>
	</g>
	<g class="st5">
		<path class="st6" d="M497.34,708.58c-8.57-22.94-8.85-49.22,4.81-70.3l12.67,6.78c0,0,18.06-35.02,23.97-61.63
			c6.44-8.42,40.84,16.2,40.84,16.2s-2.25-10.57-3.38-15.86c-1.19-5.6-2.37-11.56-0.41-16.94c1.96-5.38,8.37-9.56,13.51-7.02
			c5.06,2.49,11.96,25.91,14.39,31.54c14.61,33.86,8.55,74.57,0.17,109.3c-4.47,18.51-23.59,212.94-28.05,221.06
			c-26.96,49-100.01,39.64-113.72-14.59l0,0c-1.24-10.46-1.3-20.98-0.21-31.37c1.47-14.05,42.48-135.71,43.44-139.9
			c1.35-5.87-0.72-11.51-3.27-16.95C500.45,715.38,498.6,711.95,497.34,708.58z"/>
		<path class="st7" d="M522.36,955.4c-2.82,0-5.68-0.18-8.57-0.55c-26.39-3.39-46.83-21.51-53.35-47.3
			c-1.29-10.76-1.36-21.44-0.25-31.98c1.1-10.52,23.68-79.42,35.82-116.44c4.15-12.65,7.42-22.64,7.66-23.67
			c1.17-5.07-0.42-9.99-3.15-15.82c-0.49-1.06-1.01-2.11-1.52-3.15c-1.17-2.39-2.38-4.87-3.29-7.29v0
			c-9.66-25.87-7.85-52.06,4.98-71.85c0.5-0.76,1.49-1.01,2.29-0.59l11.09,5.94c3.55-7.11,17.93-36.72,23.02-59.63
			c0.05-0.25,0.16-0.48,0.32-0.68c6.15-8.04,29.52,6.47,39.6,13.3l-2.46-11.54c-1.13-5.29-2.53-11.88-0.34-17.9
			c1.31-3.59,4.32-6.71,7.85-8.12c2.77-1.12,5.64-1.06,8.07,0.13c4.12,2.03,8.21,12.86,12.76,25.74c1.01,2.87,1.89,5.35,2.46,6.67
			c15.29,35.46,8.18,77.62,0.27,110.4c-1.98,8.22-6.95,52.1-12.22,98.56c-8.08,71.38-13.56,118.5-16,122.93
			C565.95,943.31,545.37,955.4,522.36,955.4z M498.98,707.97c0.85,2.27,1.97,4.56,3.15,6.98c0.52,1.06,1.04,2.13,1.55,3.2
			c2.63,5.61,4.86,11.69,3.39,18.08c-0.26,1.14-2.7,8.58-7.75,23.98c-12.09,36.89-34.6,105.57-35.66,115.71
			c-1.08,10.28-1.01,20.7,0.2,30.98c6.12,24.15,25.44,41.28,50.38,44.48c24.95,3.21,47.97-8.49,60.09-30.53
			c2.3-4.24,9.67-69.34,15.6-121.64c5.27-46.57,10.26-90.56,12.29-98.99c7.78-32.25,14.81-73.69-0.08-108.2
			c-0.62-1.44-1.47-3.84-2.55-6.9c-2.54-7.21-7.84-22.2-11.01-23.77c-1.96-0.97-3.92-0.55-5.23-0.02c-2.6,1.04-4.9,3.43-5.87,6.08
			c-1.85,5.08-0.56,11.12,0.48,15.98l3.38,15.86c0.15,0.7-0.15,1.43-0.75,1.82c-0.61,0.39-1.38,0.38-1.97-0.04
			c-13.47-9.63-33.94-21.01-38.22-16.8c-5.99,26.47-23.84,61.27-24.02,61.62c-0.21,0.42-0.59,0.73-1.03,0.87
			c-0.45,0.14-0.93,0.09-1.34-0.13l-11.23-6.01C491.32,659.28,489.92,683.74,498.98,707.97L498.98,707.97z"/>
	</g>
	<path class="st8" d="M455.86,889.43c-1.18,11.3-1.12,22.74,0.23,34.12c14.91,58.98,94.36,69.16,123.69,15.87
		c4.13-7.5,19.76-161.33,27.35-219.73l-9.57,3.8c-34.9,13.86-73.92,13-108.18-2.4l0,0C491.97,726.75,457.45,874.15,455.86,889.43z"
		/>
	<g class="st9">
		<path class="st10" d="M455.86,889.43c-1.18,11.3-1.12,22.74,0.23,34.12c14.91,58.98,94.36,69.16,123.69,15.87
			c4.13-7.5,19.76-161.33,27.35-219.73l-9.57,3.8c-34.9,13.86-73.92,13-108.18-2.4l0,0C491.97,726.75,457.45,874.15,455.86,889.43z"
			/>
		<path class="st11" d="M521.59,975.91c-3.07,0-6.17-0.2-9.3-0.6c-28.63-3.68-50.82-23.35-57.9-51.33
			c-1.4-11.67-1.47-23.28-0.27-34.73l0,0c0.65-6.23,6.53-33.36,13.34-64.77c8.98-41.43,21.28-98.17,20.28-102.8
			c-0.3-0.66-0.14-1.37,0.37-1.88c0.51-0.52,1.32-0.59,1.98-0.29c33.62,15.11,72.56,15.98,106.82,2.37l9.57-3.8
			c0.57-0.22,1.23-0.13,1.71,0.25c0.49,0.38,0.74,0.99,0.66,1.6c-2.68,20.58-6.31,52.71-10.17,86.73
			c-8.79,77.59-14.74,128.82-17.39,133.62C568.9,962.79,546.57,975.91,521.59,975.91z M491.13,723.76
			c-0.7,10.01-7.15,40.97-20.26,101.46c-6.51,30.01-12.65,58.35-13.28,64.39l0,0c-1.17,11.19-1.1,22.54,0.22,33.74
			c6.68,26.35,27.74,45.02,54.92,48.51c27.21,3.49,52.3-9.26,65.51-33.28c2.51-4.55,10.53-75.4,16.98-132.33
			c3.68-32.46,7.16-63.2,9.79-83.85l-6.82,2.71C563.9,738.73,525.04,738.21,491.13,723.76z M455.86,889.43h0.03H455.86z"/>
	</g>
	<path class="st5" d="M521.59,975.91c-3.07,0-6.17-0.2-9.3-0.6c-28.63-3.68-50.82-23.35-57.9-51.33
		c-1.4-11.67-1.47-23.28-0.27-34.73l0,0c0.65-6.23,6.53-33.36,13.34-64.77c8.98-41.43,21.28-98.17,20.28-102.8
		c-0.3-0.66-0.14-1.37,0.37-1.88c0.51-0.52,1.32-0.59,1.98-0.29c33.62,15.11,72.56,15.98,106.82,2.37l9.57-3.8
		c0.57-0.22,1.23-0.13,1.71,0.25c0.49,0.38,0.74,0.99,0.66,1.6c-2.68,20.58-6.31,52.71-10.17,86.73
		c-8.79,77.59-14.74,128.82-17.39,133.62C568.9,962.79,546.57,975.91,521.59,975.91z M491.13,723.76
		c-0.7,10.01-7.15,40.97-20.26,101.46c-6.51,30.01-12.65,58.35-13.28,64.39l0,0c-1.17,11.19-1.1,22.54,0.22,33.74
		c6.68,26.35,27.74,45.02,54.92,48.51c27.21,3.49,52.3-9.26,65.51-33.28c2.51-4.55,10.53-75.4,16.98-132.33
		c3.68-32.46,7.16-63.2,9.79-83.85l-6.82,2.71C563.9,738.73,525.04,738.21,491.13,723.76z M455.86,889.43h0.03H455.86z"/>
	<g class="st5">
		<polygon class="st12" points="582.18,623.02 542.79,653.65 524.55,598.23 533.38,575.49 577.4,600.13 		"/>
		<path d="M541.91,656.55l-19.21-58.37l9.78-25.19L578.94,599l5.16,24.72L541.91,656.55z M526.4,598.28l17.27,52.48l36.58-28.45
			l-4.4-21.04l-41.57-23.27L526.4,598.28z"/>
	</g>
	<g class="st5">
		<g>
			<path class="st6" d="M578.76,605.37c0,0-2.71-13.7-3.94-19.45c-1.3-6.1-2.58-12.58-0.44-18.44c2.14-5.86,9.11-10.4,14.7-7.64
				c5.5,2.71,13.02,28.2,15.66,34.32"/>
			<path class="st7" d="M577.05,605.71c0,0-2.71-13.68-3.94-19.43c-1.22-5.74-2.75-12.89-0.37-19.4c1.41-3.87,4.66-7.23,8.46-8.75
				c2.98-1.19,6.04-1.14,8.65,0.14c4.43,2.18,8.87,13.93,13.8,27.92c1.11,3.13,2.06,5.83,2.68,7.28c0.38,0.88-0.03,1.91-0.91,2.29
				c-0.88,0.38-1.91-0.02-2.29-0.91c-0.67-1.56-1.6-4.18-2.77-7.5c-2.77-7.86-8.54-24.22-12.06-25.95
				c-2.19-1.08-4.37-0.61-5.81-0.03c-2.87,1.15-5.41,3.78-6.48,6.71c-2.03,5.57-0.62,12.17,0.51,17.47
				c1.23,5.76,3.94,19.48,3.94,19.48L577.05,605.71z"/>
		</g>
		<path d="M583.36,639.19c-0.08,0-0.15,0-0.23-0.02c-0.95-0.12-1.62-1-1.5-1.95c1.41-10.69-4.83-33.47-4.89-33.7
			c-0.26-0.93,0.29-1.89,1.22-2.14c0.93-0.25,1.89,0.29,2.14,1.22c0.27,0.96,6.48,23.69,4.99,35.07
			C584.97,638.55,584.22,639.19,583.36,639.19z"/>
	</g>
	<g class="st5">
		<path d="M582.07,521.4l21.13,6c10.32,2.93,21.23-3.61,24.35-14.61l1.18-4.15c3.12-11-2.71-22.29-13.04-25.23l-21.13-6
			L582.07,521.4z"/>
		<path d="M602.83,528.73l-21.13-6c-0.73-0.21-1.16-0.97-0.95-1.7l12.49-43.98c0.1-0.35,0.34-0.65,0.65-0.83
			c0.32-0.18,0.7-0.22,1.05-0.12l21.13,6c5.36,1.52,9.77,5.18,12.41,10.28c2.62,5.08,3.18,10.99,1.57,16.65l-1.18,4.15
			c-1.61,5.66-5.19,10.39-10.09,13.33c-2.46,1.48-5.1,2.41-7.8,2.79C608.28,529.68,605.51,529.5,602.83,528.73z M583.77,520.45
			l19.81,5.63c4.62,1.31,9.51,0.63,13.79-1.93c4.3-2.58,7.44-6.74,8.86-11.72l1.18-4.15c1.41-4.98,0.93-10.18-1.37-14.63
			c-2.29-4.42-6.09-7.58-10.71-8.89l-19.81-5.63L583.77,520.45z"/>
	</g>
	<g class="st5">
		<path d="M499.72,689.88L499.72,689.88c9.98,2.83,20.75-4.32,24.06-15.97l32.37-113.95c3.31-11.65-2.09-23.4-12.07-26.23l0,0
			c-9.98-2.83-20.75,4.32-24.06,15.97l-32.37,113.95C484.34,675.3,489.74,687.04,499.72,689.88z"/>
		<path d="M499.34,691.2L499.34,691.2c-10.69-3.04-16.53-15.57-13.02-27.94l32.37-113.95c3.51-12.37,15.07-19.96,25.76-16.92
			c5.22,1.48,9.44,5.23,11.89,10.56c2.42,5.25,2.82,11.42,1.12,17.38L525.1,674.28c-1.69,5.95-5.27,10.99-10.09,14.19
			c-2.63,1.75-5.45,2.83-8.31,3.23C504.24,692.05,501.75,691.89,499.34,691.2z M521.34,550.07l-32.37,113.95
			c-3.1,10.9,1.89,21.91,11.12,24.53c4.43,1.26,9.18,0.42,13.39-2.37c4.27-2.83,7.45-7.33,8.97-12.65l32.37-113.95
			c1.51-5.32,1.16-10.81-0.98-15.47c-2.11-4.58-5.71-7.8-10.14-9.06c-2.05-0.58-4.15-0.7-6.2-0.42
			C530.35,535.63,523.75,541.59,521.34,550.07z M499.69,689.88l0.03,0L499.69,689.88z"/>
	</g>
	<g class="st5">
		<path class="st13" d="M517.18,545.83l38.65,10.98c8.09,2.3,16.52-2.4,18.82-10.49l2.45-8.62c2.3-8.09-2.4-16.52-10.49-18.82
			l-38.65-10.98c-8.09-2.3-16.52,2.4-18.82,10.49l-2.45,8.62C504.39,535.11,509.08,543.53,517.18,545.83z"/>
		<path d="M555.45,558.14l-38.65-10.98c-4.27-1.21-7.81-4.02-9.97-7.89c-2.16-3.88-2.68-8.36-1.47-12.63l2.45-8.62
			c2.51-8.81,11.71-13.94,20.52-11.44l38.65,10.98c8.81,2.51,13.94,11.71,11.44,20.52l-2.45,8.62c-1.21,4.27-4.01,7.81-7.89,9.97
			c-1.82,1.02-3.78,1.67-5.79,1.95C560.04,558.94,557.72,558.78,555.45,558.14z M510.46,518.77l-2.45,8.62
			c-2.09,7.35,2.19,15.03,9.54,17.12l0,0l38.65,10.98c3.56,1.01,7.3,0.58,10.53-1.23c3.23-1.8,5.57-4.76,6.58-8.32l2.45-8.62
			c2.09-7.35-2.19-15.03-9.54-17.12l-38.65-10.98c-1.91-0.54-3.84-0.65-5.69-0.4C516.62,509.57,512.01,513.33,510.46,518.77z"/>
	</g>
	<g class="st5">
		<path class="st4" d="M519.66,527.15l44.42,12.62c21.7,6.16,44.62-7.58,51.18-30.7l2.48-8.72c6.57-23.12-5.7-46.86-27.4-53.02
			l-44.42-12.62L519.66,527.15z"/>
		<path class="st4" d="M563.7,541.09l-44.42-12.62c-0.73-0.21-1.16-0.97-0.95-1.7l26.26-92.44c0.1-0.35,0.34-0.65,0.65-0.83
			c0.32-0.18,0.7-0.22,1.05-0.12L590.71,446c10.87,3.09,19.8,10.49,25.15,20.85c5.34,10.33,6.48,22.36,3.2,33.88l-2.48,8.72
			c-5.1,17.96-19.86,30.46-36.41,32.78C574.78,542.98,569.2,542.66,563.7,541.09z M521.36,526.2l43.09,12.24
			c20.95,5.95,43.13-7.4,49.48-29.75l2.48-8.72c3.08-10.84,2.01-22.16-3-31.86c-5-9.67-13.33-16.58-23.45-19.46l-43.09-12.24
			L521.36,526.2z"/>
	</g>
	<g class="st5">
		<path class="st14" d="M545.92,434.71L545.92,434.71l-26.26,92.44l0,0c-33.46-9.5-69.4-7.18-102.95,6.66l-53.21,21l65.1-228.58
			l33.25,48.7C483.11,404.34,512.46,425.21,545.92,434.71z"/>
		<path d="M362.56,555.83c-0.39-0.35-0.54-0.9-0.4-1.4l65.1-228.58c0.15-0.52,0.58-0.9,1.11-0.98c0.52-0.06,1.06,0.14,1.36,0.58
			l33.23,48.67c21.19,29.31,50.01,49.81,83.33,59.27c0.73,0.21,1.16,0.97,0.95,1.7l-26.26,92.44c-0.1,0.35-0.34,0.65-0.65,0.83
			c-0.32,0.18-0.7,0.22-1.05,0.12c-33.33-9.47-68.62-7.18-102.07,6.62l-53.21,21c-0.1,0.04-0.21,0.07-0.31,0.08
			C363.28,556.23,362.87,556.11,362.56,555.83z M518.71,525.45l25.5-89.8c-33.36-9.8-62.21-30.5-83.51-59.96l-31.59-46.27
			L365.58,552.5l50.59-19.97c13.22-5.45,26.72-9.13,40.29-11.04C477.35,518.57,498.38,519.87,518.71,525.45z"/>
	</g>
	<path class="st15" d="M545.92,434.71L545.92,434.71l-26.26,92.44l0,0c-33.46-9.5-69.4-7.18-102.95,6.66l-53.21,21l65.1-228.58
		l33.25,48.7C483.11,404.34,512.46,425.21,545.92,434.71z"/>
	<path class="st5" d="M362.56,555.83c-0.39-0.35-0.54-0.9-0.4-1.4l65.1-228.58c0.15-0.52,0.58-0.9,1.11-0.98
		c0.52-0.06,1.06,0.14,1.36,0.58l33.23,48.67c21.19,29.31,50.01,49.81,83.33,59.27c0.73,0.21,1.16,0.97,0.95,1.7l-26.26,92.44
		c-0.1,0.35-0.34,0.65-0.65,0.83c-0.32,0.18-0.7,0.22-1.05,0.12c-33.33-9.47-68.62-7.18-102.07,6.62l-53.21,21
		c-0.1,0.04-0.21,0.07-0.31,0.08C363.28,556.23,362.87,556.11,362.56,555.83z M518.71,525.45l25.5-89.8
		c-33.36-9.8-62.21-30.5-83.51-59.96l-31.59-46.27L365.58,552.5l50.59-19.97c13.22-5.45,26.72-9.13,40.29-11.04
		C477.35,518.57,498.38,519.87,518.71,525.45z"/>
	<g class="st5">
		<path class="st6" d="M345.06,426.3c-18.87,64.86-15.64,122.64,7.22,129.06c22.86,6.42,56.69-40.96,75.56-105.82
			c18.87-64.86,15.64-122.64-7.22-129.06C397.77,314.06,363.94,361.44,345.06,426.3z"/>
		<path d="M351.91,556.68c-5.08-1.43-9.33-5.17-12.64-11.13c-11.91-21.45-10.11-69.53,4.47-119.64
			c19.37-66.59,53.31-113.49,77.26-106.76c5.08,1.43,9.33,5.17,12.64,11.13c11.91,21.45,10.11,69.53-4.47,119.64
			c-17.45,59.97-46.71,103.97-69.85,107.21C356.76,557.49,354.28,557.35,351.91,556.68z M346.39,426.68L346.39,426.68
			c-14.39,49.45-16.28,96.69-4.71,117.53c2.94,5.29,6.63,8.59,10.97,9.81c2.05,0.57,4.19,0.69,6.41,0.38
			c21.71-3.05,50.56-47.16,67.46-105.26c14.39-49.45,16.28-96.69,4.7-117.53c-2.94-5.29-6.63-8.59-10.97-9.81
			c-2.05-0.57-4.19-0.69-6.41-0.38C392.14,324.47,363.29,368.59,346.39,426.68z"/>
	</g>
	<g class="st5">
		<defs>
			<path id="SVGID_4_" d="M359.63,428.72c-14.71,50.99-13.77,95.95,2.11,100.42c15.88,4.47,40.67-33.24,55.38-84.23
				c14.71-50.99,13.77-95.95-2.11-100.42C399.14,340.02,374.34,377.73,359.63,428.72z"/>
		</defs>
		<use xlink:href="#SVGID_4_"  style="overflow:visible;"/>
		<clipPath id="SVGID_5_">
			<use xlink:href="#SVGID_4_"  style="overflow:visible;"/>
		</clipPath>
		<path id="XMLID_00000016033241704124810860000007339713966470290363_" class="st16" d="M388.29,438.05
			c-14.32,49.64-13.4,93.41,2.05,97.77c15.46,4.35,39.6-32.36,53.92-82c14.32-49.64,13.4-93.41-2.05-97.77
			C426.76,351.69,402.62,388.41,388.29,438.05z"/>
		<g class="st16">
			<path class="st17" d="M444.04,429.33l-30.05-8.36c-12.27-3.41-25.7,5.89-29.99,20.78v0c-4.29,14.89,2.19,29.73,14.46,33.14
				l30.05,8.36L444.04,429.33z"/>
			<path class="st7" d="M428.14,484.58l-30.05-8.36c-5.5-1.53-10.17-5.33-13.18-10.71c-3.86-6.9-4.67-15.7-2.24-24.14
				c4.49-15.59,18.71-25.34,31.68-21.72l30.05,8.36c0.36,0.1,0.66,0.34,0.83,0.66c0.18,0.32,0.22,0.7,0.12,1.05l-15.53,53.92
				c-0.16,0.54-0.61,0.91-1.14,0.98C428.52,484.64,428.33,484.63,428.14,484.58z M413.62,422.3c-11.54-3.21-24.22,5.69-28.29,19.83
				c-2.23,7.74-1.5,15.78,2,22.04c2.64,4.73,6.73,8.06,11.51,9.39l28.73,7.99l14.77-51.27L413.62,422.3z"/>
		</g>
		<g class="st16">
			<path class="st6" d="M391.12,447.23L391.12,447.23c1.35-5.73,0.27-11.43-2.43-14.84c-2.57,2.47-4.65,6.16-5.7,10.62l0,0
				c-1.26,5.35-0.79,10.68,0.98,14.75C387.18,456.07,389.94,452.24,391.12,447.23z"/>
			<path class="st7" d="M383.51,459.05c-0.36-0.13-0.65-0.4-0.81-0.75c-1.96-4.5-2.35-10.19-1.06-15.62
				c1.07-4.54,3.24-8.55,6.09-11.3c0.28-0.27,0.66-0.41,1.05-0.38c0.39,0.03,0.75,0.21,0.99,0.52c3.08,3.88,4.11,10.02,2.7,16.02
				l0,0c-1.24,5.22-4.17,9.49-7.85,11.43c-0.14,0.07-0.3,0.12-0.45,0.14C383.94,459.15,383.72,459.13,383.51,459.05z M389.78,446.91
				c1.05-4.45,0.54-9.08-1.27-12.31c-1.92,2.29-3.38,5.33-4.18,8.72c-1.01,4.25-0.88,8.66,0.33,12.35
				C387.02,453.84,388.89,450.68,389.78,446.91L389.78,446.91z"/>
		</g>
	</g>
	<g class="st5">
		<polygon class="st13" points="536.16,431.64 510.31,524.77 519.62,526.84 545.92,434.71 		"/>
		<path d="M519.32,528.19l-9.3-2.08c-0.37-0.08-0.69-0.31-0.88-0.64c-0.2-0.32-0.25-0.71-0.15-1.08l25.85-93.12
			c0.1-0.36,0.34-0.67,0.67-0.84c0.33-0.18,0.72-0.22,1.07-0.1l9.75,3.07c0.71,0.22,1.12,0.98,0.91,1.69l-26.3,92.13
			c-0.15,0.54-0.61,0.91-1.13,0.99C519.65,528.23,519.48,528.23,519.32,528.19z M537.11,433.39l-25.08,90.35l6.62,1.48l25.57-89.59
			L537.11,433.39z"/>
	</g>
	<g class="st5">
		<g>
			<path class="st6" d="M496.7,587.42l-0.2,0.38c-3.09,5.91-0.37,13.07,6.05,15.92l36.56,16.22c6.42,2.85,14.21,0.35,17.31-5.56
				l0.2-0.38c3.1-5.91,0.38-13.07-6.05-15.92l-36.56-16.22C507.58,579.01,499.79,581.51,496.7,587.42z"/>
			<path class="st7" d="M544.7,622.86c-2.12,0-4.27-0.43-6.3-1.33l-36.56-16.22c-3.61-1.6-6.4-4.57-7.64-8.13
				c-1.18-3.39-0.91-7.01,0.75-10.19l0.2-0.38c3.52-6.72,12.3-9.56,19.56-6.34l36.56,16.22c3.61,1.6,6.4,4.57,7.64,8.13
				c1.18,3.39,0.91,7.01-0.76,10.19l-0.2,0.38C555.42,620.03,550.16,622.86,544.7,622.86z M508.37,582.41
				c-4.19,0-8.21,2.14-10.13,5.82c0,0,0,0,0,0l-0.2,0.38c-1.21,2.32-1.41,4.95-0.55,7.42c0.94,2.7,2.98,4.86,5.76,6.09l36.56,16.22
				c5.62,2.49,12.38,0.35,15.06-4.78l0.2-0.38c1.22-2.32,1.41-4.96,0.55-7.43c-0.94-2.7-2.99-4.86-5.77-6.09l-36.56-16.22
				C511.71,582.75,510.03,582.41,508.37,582.41z M496.7,587.42h0.03H496.7z"/>
		</g>
		<g>
			<path class="st6" d="M507.95,564.63l-0.2,0.38c-3.1,5.91-0.38,13.07,6.04,15.92l36.55,16.22c6.42,2.85,14.22,0.35,17.32-5.56
				l0.2-0.38c3.1-5.91,0.39-13.07-6.04-15.92l-36.56-16.22C518.85,556.22,511.05,558.72,507.95,564.63z"/>
			<path class="st7" d="M555.95,600.06c-2.12,0-4.27-0.43-6.3-1.33l-36.55-16.22c-3.62-1.6-6.4-4.57-7.64-8.13
				c-1.18-3.39-0.91-7.01,0.76-10.19l0.19-0.37c0,0,0,0,0,0c3.52-6.72,12.3-9.56,19.56-6.34l36.56,16.22
				c3.61,1.6,6.4,4.57,7.64,8.13c1.18,3.39,0.91,7.01-0.77,10.19l-0.19,0.37C566.68,597.23,561.41,600.06,555.95,600.06z
				 M509.5,565.43l-0.2,0.38c-1.22,2.32-1.42,4.96-0.56,7.43c0.94,2.7,2.98,4.86,5.76,6.09l36.55,16.22
				c5.62,2.5,12.38,0.35,15.07-4.77l0.19-0.37c1.22-2.32,1.42-4.96,0.56-7.43c-0.94-2.7-2.98-4.86-5.76-6.09l-36.56-16.22
				C518.95,558.17,512.19,560.31,509.5,565.43z"/>
		</g>
		<g>
			<path class="st6" d="M492.77,611.8l-0.05,0.1c-3.06,5.83-0.38,12.91,5.97,15.72l24.94,11.06c6.34,2.81,14.04,0.34,17.1-5.49
				l0.05-0.1c3.06-5.83,0.37-12.91-5.97-15.72l-24.94-11.06C503.53,603.49,495.83,605.96,492.77,611.8z"/>
			<path class="st7" d="M529.14,641.59c-2.09,0-4.21-0.42-6.22-1.31l-24.94-11.07c-3.57-1.58-6.33-4.52-7.56-8.04
				c-1.17-3.35-0.9-6.94,0.75-10.09l0.05-0.1c3.49-6.65,12.17-9.46,19.35-6.27l24.94,11.06c3.57,1.59,6.33,4.52,7.56,8.04
				c1.17,3.35,0.9,6.93-0.75,10.08C539.77,638.77,534.54,641.59,529.14,641.59z M504.31,606.87c-4.13,0-8.09,2.11-9.99,5.73
				c0,0,0,0.01,0,0.01l-0.05,0.1c-1.19,2.28-1.39,4.88-0.54,7.31c0.93,2.66,2.94,4.79,5.68,6l24.94,11.07
				c5.53,2.46,12.2,0.35,14.85-4.71c1.25-2.39,1.44-4.99,0.6-7.42c-0.93-2.66-2.94-4.79-5.68-6l-24.94-11.06
				C507.6,607.2,505.94,606.87,504.31,606.87z"/>
		</g>
		<g>
			<path class="st6" d="M482.13,633.42l-0.2,0.38c-3.1,5.91-0.38,13.07,6.05,15.92l12.34,5.47c6.42,2.85,14.22,0.35,17.32-5.56
				l0.2-0.38c3.1-5.91,0.39-13.07-6.04-15.92l-12.35-5.48C493.02,625.01,485.23,627.51,482.13,633.42z"/>
			<path class="st7" d="M505.91,658.11c-2.12,0-4.27-0.43-6.3-1.33l-12.34-5.47c-3.61-1.6-6.4-4.57-7.64-8.13
				c-1.18-3.39-0.91-7.01,0.76-10.19l0.2-0.38c3.52-6.72,12.31-9.56,19.56-6.34l12.35,5.48c3.61,1.6,6.4,4.57,7.64,8.13
				c1.18,3.39,0.91,7.01-0.77,10.19l-0.2,0.38C516.64,655.28,511.38,658.11,505.91,658.11z M493.81,628.41
				c-4.19,0-8.21,2.14-10.14,5.82c0,0,0,0,0,0l-0.2,0.38c-1.21,2.32-1.41,4.96-0.55,7.43c0.94,2.7,2.98,4.86,5.76,6.09l12.34,5.47
				c5.62,2.49,12.38,0.35,15.07-4.78l0.2-0.38c1.22-2.32,1.42-4.96,0.56-7.42c-0.94-2.7-2.99-4.86-5.76-6.09l-12.35-5.48
				C497.15,628.74,495.46,628.41,493.81,628.41z M482.13,633.42h0.03H482.13z"/>
		</g>
	</g>
	<g class="st5">
		<defs>
			<path id="XMLID_00000170274164068466864730000012856553647791167632_" d="M352.16,423.48c-19.37,57.93-23.04,108.5-8.19,112.94
				c14.85,4.44,42.59-38.92,61.97-96.86c19.37-57.93,23.04-108.5,8.19-112.94C399.27,322.18,371.53,365.55,352.16,423.48z"/>
		</defs>
		<clipPath id="XMLID_4_">
			<use xlink:href="#XMLID_00000170274164068466864730000012856553647791167632_"  style="overflow:visible;"/>
		</clipPath>
	</g>
	<g class="st5">
		<defs>
			<path id="XMLID_00000178898231771240927290000010508290604219084167_" d="M987.27,1076.59l-12.45-280.74
				c-4.57-59.16-48.18-107.38-105.5-116.37c-38.23-5.99-79.31-11.23-106.42-11.3c-37.6-0.1-79.53-0.59-114.31,15.97
				c-32.38,15.42-41.07,48.86-43.96,81.86c-0.52,5.98-28.56,321.33-28.56,321.33l401.86,0.4
				C983.83,1088.1,987.53,1082.49,987.27,1076.59z"/>
		</defs>
		<defs>
			<path id="SVGID_6_" d="M978.49,1089.49c-0.22,0-0.44-0.01-0.66-0.02l-401.75-0.4c-0.49,0-0.95-0.21-1.28-0.57
				c-0.33-0.36-0.49-0.84-0.45-1.33c0,0,28.03-315.34,28.55-321.32c2.63-30.06,10.11-66.69,44.95-83.28
				c34.36-16.37,75.93-16.25,112.57-16.15l2.5,0.01c23.23,0.06,59.12,3.87,106.68,11.32c58.33,9.14,102.31,57.65,106.97,117.96
				l12.46,280.8c0.18,3.91-1.21,7.71-3.7,10.16C983.43,1088.53,981.08,1089.49,978.49,1089.49z M577.98,1085.59l399.96,0.4
				c1.95,0.15,3.61-0.51,4.93-1.8c1.8-1.77,2.79-4.58,2.66-7.52l0,0l-12.46-280.75c-4.53-58.63-47.31-105.83-104.03-114.72
				c-47.38-7.43-83.1-11.22-106.15-11.28l-2.49-0.01c-36.3-0.11-77.41-0.22-111.06,15.81c-33.24,15.83-40.42,51.3-42.97,80.44
				C605.87,771.87,580.31,1059.45,577.98,1085.59z"/>
		</defs>
		<use xlink:href="#XMLID_00000178898231771240927290000010508290604219084167_"  style="overflow:visible;fill:#FF8189;"/>
		<use xlink:href="#SVGID_6_"  style="overflow:visible;fill:#FF8189;"/>
		<clipPath id="XMLID_5_">
			<use xlink:href="#XMLID_00000178898231771240927290000010508290604219084167_"  style="overflow:visible;"/>
		</clipPath>
		<clipPath id="SVGID_7_" class="st18">
			<use xlink:href="#SVGID_6_"  style="overflow:visible;"/>
		</clipPath>
	</g>
	<g class="st9">
		<g>
			<defs>
				<path id="XMLID_00000179623928211600579780000007386265165581888445_" d="M987.27,1076.59l-12.45-280.74
					c-4.57-59.16-48.18-107.38-105.5-116.37c-38.23-5.99-79.31-11.23-106.42-11.3c-37.6-0.1-79.53-0.59-114.31,15.97
					c-32.38,15.42-41.07,48.86-43.96,81.86c-0.52,5.98-28.56,321.33-28.56,321.33l401.86,0.4
					C983.83,1088.1,987.53,1082.49,987.27,1076.59z"/>
			</defs>
			<defs>
				<path id="SVGID_8_" d="M978.49,1089.49c-0.22,0-0.44-0.01-0.66-0.02l-401.75-0.4c-0.49,0-0.95-0.21-1.28-0.57
					c-0.33-0.36-0.49-0.84-0.45-1.33c0,0,28.03-315.34,28.55-321.32c2.63-30.06,10.11-66.69,44.95-83.28
					c34.36-16.37,75.93-16.25,112.57-16.15l2.5,0.01c23.23,0.06,59.12,3.87,106.68,11.32c58.33,9.14,102.31,57.65,106.97,117.96
					l12.46,280.8c0.18,3.91-1.21,7.71-3.7,10.16C983.43,1088.53,981.08,1089.49,978.49,1089.49z M577.98,1085.59l399.96,0.4
					c1.95,0.15,3.61-0.51,4.93-1.8c1.8-1.77,2.79-4.58,2.66-7.52l0,0l-12.46-280.75c-4.53-58.63-47.31-105.83-104.03-114.72
					c-47.38-7.43-83.1-11.22-106.15-11.28l-2.49-0.01c-36.3-0.11-77.41-0.22-111.06,15.81c-33.24,15.83-40.42,51.3-42.97,80.44
					C605.87,771.87,580.31,1059.45,577.98,1085.59z"/>
			</defs>
			<use xlink:href="#XMLID_00000179623928211600579780000007386265165581888445_"  style="display:none;overflow:visible;"/>
			<use xlink:href="#SVGID_8_"  style="overflow:visible;"/>
			<clipPath id="XMLID_6_">
				<use xlink:href="#XMLID_00000179623928211600579780000007386265165581888445_"  style="display:none;overflow:visible;"/>
			</clipPath>
			<clipPath id="SVGID_9_" class="st19">
				<use xlink:href="#SVGID_8_"  style="overflow:visible;"/>
			</clipPath>
		</g>
	</g>
	<g class="st5">
		<path class="st20" d="M754.37,730.22c34.86,0.81,62.96-21.04,64.5-48.14l0.67-11.85c0.44-7.68-7.02-14.46-16.87-15.31
			c-13.46-1.17-25.81-1.93-36.12-2.1c-19.42-0.31-40-0.7-60.12,0.66c-8.89,0.6-15.65,6.27-16.05,13.23l-0.54,9.53
			C688.21,704.69,717.36,729.36,754.37,730.22z"/>
		<path class="st20" d="M756.27,731.98c-0.65,0-1.29-0.01-1.94-0.02c-21.28-0.49-40.72-8.62-53.35-22.3
			c-8.99-9.74-13.57-21.65-12.89-33.52l0.54-9.53c0.46-7.95,7.89-14.21,17.67-14.87c19.49-1.32,39.19-1,58.23-0.7l2.04,0.03
			c9.74,0.16,21.93,0.86,36.25,2.1c10.85,0.94,18.96,8.47,18.47,17.15l-0.67,11.85C819,710.39,790.9,731.98,756.27,731.98z
			 M739.24,654.27c-10.88,0-21.83,0.22-32.7,0.96c-7.88,0.53-14.08,5.51-14.43,11.59l-0.54,9.53c-0.63,11.08,3.51,21.79,11.97,30.96
			c11.99,12.98,30.53,20.7,50.87,21.17c33.04,0.73,61.21-20.09,62.72-46.49l0.67-11.85c0.38-6.67-6.48-12.71-15.29-13.48
			c-14.23-1.23-26.34-1.94-36-2.09l-2.04-0.03C756.16,654.4,747.72,654.27,739.24,654.27z"/>
	</g>
	<path class="st5" d="M1009.98,537.09c-12.12-17.88-16.82-37.41-17.9-58.67c-1.11-21.85,0.08-45.67-10.95-65.43
		c-12.7-22.75-41.48-31.33-67.53-31.56c-31.92-0.28-73.23,15.38-74.73,52.29c-0.2,4.97,0.18,9.98,0.97,14.94
		c-16.06-14.38-37.14-23.3-60.38-23.73l-3.83-0.07c-51.45-0.95-93.93,39.98-94.88,91.43c-0.95,51.45,39.98,93.93,91.43,94.88
		l3.83,0.07c51.45,0.95,93.93-39.98,94.88-91.43l0,0c0.11-6.16-0.39-12.19-1.42-18.03c6.43,5.63,13.62,10.24,21.33,13.44
		c9.34,3.88,19.71,6.26,27.16,13.11c9.24,8.49,11.86,21.83,18.02,32.76c10.7,19.01,32.9,30.25,54.71,29.86
		c21.81-0.39,42.72-11.54,57.05-27.98C1030.8,563.84,1018.64,549.88,1009.98,537.09z"/>
	<path class="st5" d="M777.78,612.99c-0.6,0-1.2-0.01-1.8-0.02l-3.83-0.07c-52.33-0.97-94.11-44.33-93.14-96.66
		c0.96-51.73,43.35-93.16,94.87-93.16c0.6,0,1.18,0.01,1.78,0.02l3.84,0.07c21.19,0.39,41.62,7.89,58.02,21.2
		c-0.39-3.72-0.52-7.31-0.38-10.74c1.61-39.7,45.83-53.96,75.68-53.96c0.27,0,0.54,0,0.81,0c32.04,0.28,57.85,12.41,69.04,32.45
		c9.46,16.95,10.12,36.57,10.75,55.55c0.12,3.58,0.24,7.14,0.42,10.64c1.19,23.45,6.79,41.82,17.61,57.78l0,0
		c7.58,11.19,19.61,26.03,36.22,25.1c0.69-0.05,1.35,0.35,1.66,0.98c0.31,0.63,0.21,1.38-0.25,1.91
		c-15.27,17.52-37.08,28.2-58.34,28.58c-0.37,0.01-0.75,0.01-1.12,0.01c-22.67,0-44.72-12.26-55.14-30.76
		c-2.17-3.85-3.92-8.01-5.61-12.04c-3.24-7.71-6.3-14.99-12.07-20.3c-5.3-4.87-12.12-7.36-19.33-9.99c-2.46-0.9-4.92-1.8-7.31-2.79
		c-6.39-2.66-12.52-6.28-18.25-10.79c0.59,4.6,0.84,9.22,0.75,13.8c-0.47,25.35-10.78,49-29.04,66.59
		C825.77,603.59,802.46,612.99,777.78,612.99z M773.88,426.57c-49.64,0-90.47,39.91-91.39,89.74c-0.93,50.4,39.32,92.17,89.72,93.11
		l3.83,0.07c24.48,0.37,47.55-8.63,65.14-25.58c17.58-16.95,27.52-39.73,27.97-64.14c0.11-5.88-0.36-11.83-1.39-17.7
		c-0.13-0.73,0.21-1.46,0.86-1.82c0.64-0.37,1.45-0.28,2,0.21c6.45,5.65,13.46,10.07,20.85,13.14c2.34,0.98,4.75,1.85,7.17,2.73
		c7.22,2.63,14.68,5.36,20.49,10.7c6.34,5.83,9.69,13.8,12.93,21.52c1.65,3.93,3.36,8,5.43,11.67
		c9.98,17.72,31.36,29.42,53.16,28.97c19.12-0.34,38.74-9.45,53.18-24.55c-16.27-1.29-27.84-15.56-35.3-26.58l0,0
		c-11.19-16.52-16.97-35.44-18.2-59.56c-0.18-3.53-0.3-7.1-0.42-10.7c-0.62-18.56-1.26-37.76-10.31-53.97
		c-10.57-18.93-35.25-30.4-66.02-30.66c-0.26,0-0.52,0-0.79,0c-28.49,0-70.67,13.37-72.18,50.62c-0.19,4.57,0.13,9.48,0.95,14.59
		c0.12,0.73-0.24,1.45-0.89,1.81c-0.64,0.35-1.44,0.26-2-0.23c-16.32-14.62-37.36-22.89-59.25-23.29l-3.84-0.07
		C775.02,426.58,774.44,426.57,773.88,426.57z"/>
	<g class="st5">
		<path class="st6" d="M828.84,531.65c-7.68,5.92-17.07,9.42-26.96,9.71l2.37-0.14c0,0-6.18,17.75-6.2,17.8
			c0.1-0.29-5.82-2.19-6.41-2.47c-2.57-1.23-4.73-3.09-6.07-5.64c-3.04-5.79-0.64-14.81-0.13-21.11c0.12-1.43,1.99-13.3,0.3-13.98
			c-12.44-4.96-35.61-11.72-44.51-21.22c-9.97-10.65-15.66-25.97-13.45-39.62c-20.22,38.15-41.29,31.69-41.33,31.9
			c-2.62,11.35-2.3,14.69-4.11,24.52c0,0-8.12,53.09-8.24,54.25c-2.99,28.53,12.13,55.52,37.02,68.32l-1.39,24.23
			c-1.46,25.55,18.06,47.44,43.61,48.9c25.55,1.46,47.44-18.06,48.9-43.61l3.4-59.39c1.61-2.15,3.12-4.39,4.49-6.72
			c1.98,0.77,4.05,1.38,6.22,1.79c18.65,3.45,36.56-8.87,40.01-27.52C859.79,553.01,847.48,535.1,828.84,531.65z"/>
		<path class="st7" d="M756.03,708.94c-0.93,0-1.87-0.03-2.81-0.08c-26.46-1.51-46.77-24.28-45.25-50.74L709.3,635
			c-25.1-13.43-39.92-41.22-36.95-69.52c0.12-1.17,7.42-48.89,8.25-54.33c0.74-3.99,1.12-6.89,1.49-9.68
			c0.55-4.18,1.08-8.13,2.65-14.97c0.21-0.9,1.38-1.44,2.27-1.3c4.91,0.81,22.26,0.98,39.23-31.03c0.39-0.75,1.28-1.11,2.09-0.84
			c0.81,0.27,1.3,1.09,1.16,1.93c-2.04,12.57,3.07,27.55,13.01,38.15c6.76,7.21,22.34,12.87,34.86,17.42
			c3.33,1.21,6.41,2.33,9.02,3.37c2.1,0.84,2.3,3.93,0.95,14.4c-0.08,0.65-0.14,1.12-0.16,1.34c-0.12,1.49-0.34,3.14-0.58,4.87
			c-0.73,5.32-1.56,11.34,0.52,15.29c1.1,2.08,2.87,3.72,5.28,4.88c0.2,0.09,0.89,0.32,1.72,0.61c1.18,0.41,2.15,0.75,2.93,1.04
			c1.13-3.24,3.45-9.92,4.71-13.53c-0.87-0.06-1.57-0.77-1.61-1.66c-0.04-0.95,0.68-1.76,1.64-1.82l2.37-0.14
			c0.04,0,0.09-0.01,0.14,0c8.51-0.73,16.58-3.88,23.49-9.21c0.4-0.3,0.9-0.42,1.38-0.33c19.55,3.62,32.52,22.48,28.9,42.04
			c-3.62,19.56-22.49,32.53-42.04,28.91c-1.71-0.32-3.44-0.78-5.15-1.37c-1.09,1.76-2.27,3.51-3.54,5.22l-3.37,58.87
			c-0.73,12.82-6.41,24.59-16,33.13C779.08,704.66,767.84,708.93,756.03,708.94z M687.79,488.81c-1.27,5.75-1.75,9.33-2.24,13.11
			c-0.38,2.84-0.77,5.78-1.51,9.81c-2.78,18.18-8.09,52.97-8.22,54.12c-2.86,27.26,11.64,54.02,36.09,66.58
			c0.61,0.31,0.98,0.96,0.94,1.65l-1.39,24.23c-1.4,24.55,17.43,45.66,41.97,47.06c11.87,0.67,23.33-3.31,32.22-11.24
			c8.89-7.93,14.16-18.84,14.84-30.73l3.4-59.4c0.02-0.34,0.14-0.67,0.35-0.95c1.6-2.13,3.08-4.34,4.38-6.56
			c0.43-0.74,1.34-1.05,2.13-0.74c1.96,0.76,3.95,1.33,5.91,1.7c17.69,3.27,34.71-8.45,37.98-26.12
			c3.22-17.42-8.12-34.22-25.37-37.83c-7.04,5.26-15.17,8.45-23.74,9.35c-1.32,3.81-5.74,16.48-5.82,16.72h0
			c-0.31,0.9-1.29,1.39-2.2,1.09c-0.23-0.08-0.44-0.2-0.61-0.35c-0.69-0.32-2.85-1.07-3.93-1.45c-1.03-0.36-1.86-0.65-2.07-0.76
			c-3.06-1.47-5.44-3.68-6.87-6.4c-2.6-4.94-1.69-11.55-0.89-17.39c0.22-1.65,0.44-3.24,0.56-4.68c0.02-0.25,0.09-0.78,0.18-1.5
			c0.92-7.17,0.93-9.92,0.72-10.91c-2.48-0.98-5.35-2.02-8.43-3.14c-12.87-4.67-28.89-10.49-36.21-18.31
			c-8.85-9.45-14.03-21.72-14.38-33.44C709.94,487.74,694.16,489.38,687.79,488.81z"/>
	</g>
	<g class="st5">
		<path d="M728.02,640.15c-5.44-1.17-10.54-3.02-15.34-5.33c-0.28,10.51-0.9,28.03-1.97,28.98c0,0,33.05,4.75,56.21-26.61
			C754.92,641.76,741.52,643.07,728.02,640.15z"/>
		<path d="M715.22,665.77c-2.93,0-4.68-0.23-4.76-0.24c-0.67-0.1-1.23-0.58-1.42-1.23c-0.16-0.52-0.06-1.07,0.24-1.5
			c0.22-0.69,1.04-4.78,1.66-28.03c0.02-0.59,0.33-1.13,0.83-1.44c0.5-0.31,1.13-0.34,1.66-0.08c4.92,2.37,9.95,4.12,14.95,5.2
			c12.67,2.74,25.78,1.73,37.92-2.89c0.71-0.27,1.54-0.04,2.01,0.58c0.47,0.62,0.47,1.47,0.01,2.09
			C750.07,662.96,725.45,665.77,715.22,665.77z M712.92,662.24c6.89,0.36,30.34-0.2,48.94-21.52c-11.13,3.2-22.85,3.6-34.21,1.14
			l0,0c-4.45-0.96-8.91-2.42-13.3-4.35C713.92,652.52,713.42,659.17,712.92,662.24z"/>
	</g>
	<g class="st5">
		<path d="M726.79,542.44c0.13,3.12,2.76,5.55,5.88,5.42c3.12-0.13,5.55-2.76,5.42-5.88c-0.13-3.12-2.76-5.55-5.88-5.42
			C729.09,536.68,726.67,539.32,726.79,542.44z"/>
		<path d="M683.6,534.31c0.11,2.77,2.45,4.92,5.21,4.81c2.77-0.11,4.92-2.45,4.81-5.21c-0.11-2.77-2.45-4.92-5.21-4.81
			C685.65,529.21,683.49,531.54,683.6,534.31z"/>
		<g>
			<path d="M734.61,515.15c1.26,1.42,3.36,2.15,5.36,2.97c2.02,0.79,4.04,1.63,5.76,2.43c1.73,0.8,3.69,1.78,5.61,2.82
				c1.93,0.98,3.87,2.12,5.7,2.12c1.76,0.03,3.16-1.57,2.38-4.69c-0.7-3.01-3.98-7.45-9.7-10.1c-5.72-2.62-11-2.13-13.53-0.61
				C733.52,511.62,733.39,513.8,734.61,515.15z"/>
		</g>
		<g>
			<path d="M700.68,510.73c-1.34,1-3.3,1.23-5.17,1.57c-1.9,0.3-3.79,0.65-5.43,1.02c-1.64,0.37-3.51,0.85-5.36,1.39
				c-1.85,0.49-3.73,1.11-5.32,0.77c-1.53-0.31-2.47-1.96-1.25-4.53c1.13-2.48,4.75-5.72,10.18-6.95c5.43-1.2,9.93,0.22,11.87,2.02
				C702.24,507.87,701.98,509.79,700.68,510.73z"/>
		</g>
		<g>
			<path class="st6" d="M749.94,567.6c-1.58-1.38-3.91-1.4-5.63-0.21c-3.13,2.18-9.81,5.9-18.63,5.63c-2.16-0.07-3.6,2.27-2.94,4.33
				c1.45,4.54,5.97,11.84,17.91,8.07C755.2,580.84,754.05,571.2,749.94,567.6z"/>
			<path d="M734.47,588.23c-9.25,0-12.52-7.6-13.39-10.34c-0.51-1.61-0.21-3.37,0.81-4.73c0.94-1.24,2.33-1.95,3.85-1.88
				c8.24,0.28,14.57-3.22,17.57-5.32c2.43-1.69,5.63-1.56,7.78,0.33l0,0c2.61,2.29,3.82,6.03,3.08,9.53
				c-0.6,2.87-3.09,8.14-13,11.27C738.65,587.89,736.43,588.23,734.47,588.23z M725.59,574.77c-0.45,0-0.75,0.27-0.92,0.5
				c-0.34,0.44-0.44,1.04-0.27,1.57c1.29,4.04,5.03,10.31,15.72,6.94c6.09-1.92,9.86-5,10.63-8.66c0.59-2.79-0.69-5.08-1.96-6.19
				c-0.94-0.82-2.37-0.86-3.49-0.09c-3.36,2.34-10.44,6.22-19.67,5.94C725.62,574.77,725.61,574.77,725.59,574.77z"/>
		</g>
		<path d="M709.05,566.37c-0.1,0-0.2-0.01-0.3-0.03l-5.45-0.94c-3.53-0.49-6.71-2.32-8.9-5.16c-2.2-2.85-3.15-6.38-2.66-9.92
			c0.23-1.71,1.13-3.22,2.53-4.26c1.38-1.03,3.09-1.47,4.82-1.23l5.11,0.7c0.57,0.07,1.16-0.07,1.62-0.42
			c0.44-0.34,0.72-0.82,0.8-1.36l2.96-16.78c0.17-0.95,1.1-1.58,2.02-1.41c0.95,0.17,1.58,1.07,1.41,2.02l-2.95,16.71
			c-0.19,1.4-0.95,2.7-2.13,3.59c-1.2,0.92-2.69,1.3-4.2,1.09l-5.11-0.7c-0.81-0.1-1.61,0.09-2.26,0.58
			c-0.64,0.47-1.04,1.16-1.15,1.94c-0.36,2.61,0.34,5.21,1.96,7.31c1.63,2.12,4,3.48,6.68,3.85l5.5,0.95
			c0.95,0.16,1.59,1.07,1.42,2.01C710.62,565.78,709.88,566.37,709.05,566.37z"/>
	</g>
	<g class="st5">
		<g>
			<path d="M827.84,576.13c-0.47,0-0.95-0.19-1.29-0.57l-7.44-8.2c-0.34-0.38-0.5-0.88-0.44-1.39c0.06-0.51,0.34-0.96,0.77-1.24
				l12.38-8.16c0.8-0.53,1.88-0.31,2.42,0.5c0.53,0.8,0.31,1.88-0.5,2.41l-10.68,7.04l6.07,6.69c0.65,0.71,0.59,1.81-0.12,2.46
				C828.68,575.98,828.26,576.13,827.84,576.13z"/>
		</g>
	</g>
	<path class="st21" d="M831.76,615.07c-3.29,0-6.46-1.11-9.06-3.19c-3.03-2.43-4.93-5.89-5.36-9.75
		c-0.87-7.97,4.89-15.16,12.86-16.04c7.99-0.87,15.17,4.89,16.04,12.86c0.43,3.86-0.68,7.65-3.11,10.68
		c-2.43,3.03-5.89,4.93-9.75,5.36l0,0C832.84,615.04,832.3,615.07,831.76,615.07z M831.8,589.49c-0.4,0-0.81,0.02-1.22,0.07
		c-6.05,0.67-10.44,6.14-9.77,12.19c0.32,2.93,1.77,5.57,4.07,7.41c2.3,1.85,5.18,2.68,8.12,2.36l0,0c2.93-0.32,5.57-1.77,7.41-4.07
		c1.84-2.3,2.69-5.19,2.36-8.12C842.16,593.68,837.35,589.49,831.8,589.49z"/>
	<path class="st22" d="M681.46,880.5"/>
	<path class="st5" d="M606.28,875.22c-14.89,35.51-38.25,59.56-52.18,53.72c-13.93-5.84-13.16-39.36,1.73-74.87
		c14.89-35.51,38.25-59.56,52.18-53.72C621.95,806.18,621.17,839.71,606.28,875.22z"/>
	<path class="st5" d="M558.58,931.56c-1.82,0-3.54-0.33-5.15-1.01c-15.04-6.31-14.69-40.2,0.8-77.15
		c7.28-17.37,16.8-32.61,26.81-42.91c10.39-10.7,20.21-14.87,27.65-11.75c15.04,6.31,14.69,40.2-0.8,77.15
		c-7.28,17.37-16.8,32.61-26.81,42.91C572.94,927.18,565.15,931.56,558.58,931.56z M603.57,801.22c-5.58,0-12.64,4.07-20.03,11.69
		c-9.71,9.99-18.97,24.85-26.09,41.83c-14.25,33.98-15.47,67.23-2.67,72.59c5.93,2.49,14.62-1.5,23.81-10.96
		c9.71-9.99,18.97-24.85,26.09-41.83c14.25-33.98,15.47-67.23,2.67-72.59C606.18,801.46,604.92,801.22,603.57,801.22z"/>
	<g class="st5">
		<path class="st6" d="M484.74,749.23l60.6,4.39l-2.72-25.21c-1.13-5.79,0.18-10.99,5.08-14.28c8.94-6,21.14-2.43,25.42,7.45
			l34.37,86.73c10.72,27.04,15.27,78.15,8.55,105.27l-40.9,22.13c0,0-37.75-55.75-48.09-55.58c-5.64,0.09-12.55-2.56-18-3.92
			c-7.13-1.77-14.19-3.96-20.83-7.12c-2.76-1.32-5.49-2.83-7.58-5.06c-6.9-7.33-1.5-19.97,8.95-18.63l15.55,2
			c-11.22-2.38-21.33-4.92-28.31-6.78c-5.7-1.52-9.42-6.99-8.73-12.85c0.69-5.96,5.99-10.3,11.97-9.81l34.14,2.81
			c-21.26-2.88-35.23-6.61-43.47-9.37c-5.65-1.9-9.19-7.49-8.56-13.42l0.15-1.36c0.73-6.83,6.9-14.3,13.73-13.57l4.31,0.13
			c-9.11-1.3-15.56-9.59-14.58-18.74C466.8,755,475.3,748.18,484.74,749.23z"/>
		<path class="st7" d="M575.14,937.45c-0.56,0-1.11-0.27-1.44-0.77c-14.37-21.21-39.69-54.82-46.58-54.82c-0.16-0.01-0.23,0-0.34,0
			c-4.31,0-9.21-1.43-13.55-2.69c-1.6-0.47-3.15-0.92-4.59-1.28c-8.5-2.11-15.23-4.41-21.16-7.24c-2.68-1.27-5.73-2.92-8.1-5.43
			c-3.84-4.08-4.67-9.96-2.11-14.98c1.48-2.9,3.85-4.96,6.69-5.98c-2.87-0.72-5.43-1.39-7.58-1.97c-6.59-1.76-10.8-7.95-10.02-14.74
			c0.8-6.94,6.86-11.91,13.85-11.35l1.09,0.09c-4.54-1.17-8.22-2.28-11.11-3.25c-6.36-2.13-10.46-8.55-9.73-15.26l0.15-1.36
			c0.4-3.74,2.29-7.71,5.04-10.63c1.92-2.03,4.09-3.41,6.34-4.08c-5.47-3.8-8.69-10.37-7.93-17.47c0.54-5.03,3.01-9.55,6.96-12.72
			c3.94-3.16,8.87-4.59,13.89-4.05l58.49,4.23l-2.49-23.13c-1.33-6.78,0.74-12.49,5.84-15.91c4.69-3.15,10.5-4.05,15.92-2.45
			c5.42,1.59,9.82,5.47,12.07,10.66l34.39,86.78c11.06,27.9,15.24,79.57,8.62,106.33c-0.12,0.48-0.43,0.88-0.86,1.11l-40.91,22.12
			C575.71,937.38,575.43,937.45,575.14,937.45z M527.09,878.38c10.36,0,40.57,43.25,48.61,55.04l38.84-21.01
			c6.23-26.4,2.09-76.35-8.66-103.46l-34.37-86.73c-1.81-4.18-5.41-7.35-9.83-8.65c-4.43-1.3-9.17-0.57-13,2
			c-3.98,2.67-5.44,6.88-4.34,12.5l2.74,25.35c0.05,0.51-0.12,1.03-0.48,1.4c-0.36,0.37-0.86,0.56-1.38,0.53l-60.61-4.39
			c-0.02,0-0.04,0-0.07,0c-4.09-0.46-8.13,0.71-11.35,3.3c-3.22,2.59-5.23,6.27-5.67,10.37c-0.89,8.26,4.86,15.66,13.09,16.83
			c0.92,0.13,1.57,0.95,1.49,1.87c-0.08,0.92-0.91,1.61-1.79,1.59L476,784.8c-3.68-0.39-6.47,1.97-7.83,3.4
			c-2.25,2.38-3.79,5.6-4.11,8.61l-0.15,1.36c-0.56,5.17,2.47,9.93,7.38,11.58c7.88,2.64,21.76,6.39,43.15,9.29
			c0.94,0.13,1.6,0.98,1.5,1.92c-0.11,0.94-1.01,1.6-1.88,1.55l-34.14-2.81c-5.06-0.42-9.51,3.22-10.1,8.27
			c-0.59,5.05,2.55,9.66,7.45,10.97c6.51,1.74,16.69,4.32,28.22,6.76c0.92,0.19,1.51,1.08,1.36,2c-0.16,0.92-1.02,1.53-1.94,1.44
			l-15.55-2c-3.89-0.5-7.24,1.26-9,4.7c-1.89,3.69-1.28,8.01,1.54,11.01c1.97,2.1,4.68,3.54,7.06,4.68c5.72,2.73,12.23,4.95,20.5,7
			c1.49,0.37,3.08,0.83,4.73,1.31c4.2,1.23,8.97,2.55,12.82,2.55C527.05,878.38,527.07,878.38,527.09,878.38z"/>
	</g>
	<g class="st5">
		<g>
			<line class="st23" x1="531.53" y1="790.03" x2="476.71" y2="782.55"/>
			<path d="M531.53,791.78c-0.08,0-0.16,0-0.24-0.02l-54.82-7.49c-0.95-0.13-1.62-1.01-1.49-1.96c0.13-0.95,1.01-1.61,1.96-1.49
				l54.82,7.49c0.95,0.13,1.62,1.01,1.49,1.96C533.13,791.14,532.39,791.78,531.53,791.78z"/>
		</g>
	</g>
	<g class="st5">
		<g>
			<line class="st23" x1="526.79" y1="822.57" x2="485.17" y2="816.41"/>
			<path d="M526.79,824.31c-0.09,0-0.17-0.01-0.26-0.02l-41.62-6.16c-0.95-0.14-1.61-1.03-1.47-1.98c0.14-0.95,1.05-1.59,1.98-1.47
				l41.62,6.16c0.95,0.14,1.61,1.03,1.47,1.98C528.38,823.69,527.64,824.31,526.79,824.31z"/>
		</g>
	</g>
	<g class="st5">
		<g>
			<line class="st23" x1="520.89" y1="850.29" x2="488.81" y2="844.49"/>
			<path d="M520.9,852.04c-0.11,0-0.21-0.01-0.31-0.03l-32.08-5.8c-0.95-0.17-1.58-1.08-1.41-2.02c0.17-0.95,1.09-1.57,2.02-1.41
				l32.08,5.81c0.95,0.17,1.58,1.08,1.41,2.02C522.45,851.45,521.72,852.04,520.9,852.04z"/>
		</g>
	</g>
	<g class="st5">
		<line class="st23" x1="559.45" y1="755.81" x2="535.4" y2="752.82"/>
		<path d="M559.46,757.55c-0.07,0-0.15,0-0.22-0.01l-24.06-2.99c-0.96-0.12-1.63-0.99-1.51-1.94c0.12-0.96,1.01-1.66,1.94-1.51
			l24.06,2.99c0.96,0.12,1.63,0.99,1.51,1.94C561.07,756.9,560.32,757.55,559.46,757.55z"/>
	</g>
	<path class="st8" d="M837.99,711.59l-43.08,142.85l55.21,16.6l-236.95-69.66c-5.65,50.65-19.69,94.13-57.22,128.62
		c-0.83,0.76,41.74,18.12,42.79,18.53l185.45,72.78c56.66,22.24,120.6-5.79,142.66-62.52l22.62-58.18"/>
	<path class="st24" d="M824.4,1030.72c-13.8,0-27.61-2.59-40.84-7.78l-185.44-72.78c-10.18-4.02-43.41-17.32-43.88-19.8
		c-0.11-0.59,0.1-1.23,0.54-1.63c32.7-30.05,50.17-69.38,56.66-127.53c0.06-0.51,0.34-0.97,0.77-1.26c0.43-0.29,0.96-0.37,1.46-0.22
		l179.98,52.91l42.68-141.53c0.28-0.92,1.26-1.44,2.17-1.16c0.92,0.28,1.44,1.25,1.16,2.17l-42.57,141.18l53.54,16.1
		c0.92,0.28,1.44,1.24,1.17,2.16c-0.27,0.92-1.24,1.45-2.16,1.17l-234.96-69.08c-6.66,56.92-23.96,95.99-55.85,126.08
		c7.7,3.76,37.66,16.05,40.56,17.2l185.44,72.78c26.97,10.59,56.44,10.01,82.97-1.62c26.53-11.63,46.93-32.9,57.42-59.9l22.61-58.18
		c0.35-0.9,1.37-1.35,2.25-0.99c0.9,0.35,1.34,1.36,0.99,2.25l-22.61,58.18c-10.83,27.87-31.89,49.83-59.27,61.83
		C854.83,1027.56,839.62,1030.72,824.4,1030.72z"/>
	<path class="st24" d="M824.4,1030.72c-13.8,0-27.61-2.59-40.84-7.78l-185.44-72.78c-10.18-4.02-43.41-17.32-43.88-19.8
		c-0.11-0.59,0.1-1.23,0.54-1.63c32.7-30.05,50.17-69.38,56.66-127.53c0.06-0.51,0.34-0.97,0.77-1.26c0.43-0.29,0.96-0.37,1.46-0.22
		l179.98,52.91l42.68-141.53c0.28-0.92,1.26-1.44,2.17-1.16c0.92,0.28,1.44,1.25,1.16,2.17l-42.57,141.18l53.54,16.1
		c0.92,0.28,1.44,1.24,1.17,2.16c-0.27,0.92-1.24,1.45-2.16,1.17l-234.96-69.08c-6.66,56.92-23.96,95.99-55.85,126.08
		c7.7,3.76,37.66,16.05,40.56,17.2l185.44,72.78c26.97,10.59,56.44,10.01,82.97-1.62c26.53-11.63,46.93-32.9,57.42-59.9l22.61-58.18
		c0.35-0.9,1.37-1.35,2.25-0.99c0.9,0.35,1.34,1.36,0.99,2.25l-22.61,58.18c-10.83,27.87-31.89,49.83-59.27,61.83
		C854.83,1027.56,839.62,1030.72,824.4,1030.72z"/>
	<g class="st5">
		<polygon class="st25" points="223.16,490.42 263.8,460.07 263.26,473.8 299.09,459.83 253.54,493.52 252.92,480.61 		"/>
		<path class="st25" d="M300.08,458.74c0.12,0.11,0.22,0.23,0.3,0.38c0.36,0.65,0.18,1.45-0.41,1.89l-45.55,33.69
			c-0.44,0.32-1.01,0.38-1.5,0.15c-0.49-0.23-0.81-0.71-0.84-1.25l-0.53-10.98l-27.92,9.2c-0.68,0.23-1.42-0.07-1.76-0.72
			c-0.33-0.64-0.15-1.42,0.42-1.85l40.64-30.34c0.45-0.34,1.06-0.39,1.56-0.13c0.51,0.27,0.81,0.79,0.78,1.36l-0.45,11.48
			l33.75-13.16C299.09,458.25,299.68,458.38,300.08,458.74z M254.88,490.7l34.49-25.51l-25.57,9.97c-0.46,0.18-0.98,0.12-1.39-0.17
			c-0.4-0.28-0.63-0.76-0.62-1.26l0.42-10.65l-30.95,23.11l21.2-6.98c0.44-0.14,0.91-0.08,1.29,0.18c0.37,0.26,0.62,0.68,0.64,1.14
			L254.88,490.7z"/>
	</g>
	<g class="st5">
		<polygon class="st25" points="284.28,313.99 322.46,342.69 309.91,345.84 332.02,374.53 289.51,342.27 301.01,338.29 		"/>
		<path class="st25" d="M323.44,341.61c0.38,0.34,0.56,0.87,0.45,1.38c-0.11,0.55-0.53,0.99-1.08,1.13l-10.37,2.6l20.74,26.92
			c0.45,0.58,0.4,1.41-0.12,1.93c-0.52,0.52-1.34,0.58-1.93,0.14l-42.5-32.26c-0.43-0.33-0.65-0.87-0.56-1.4
			c0.09-0.54,0.46-0.98,0.97-1.16l9.68-3.35l-15.64-22.71c-0.41-0.59-0.33-1.4,0.19-1.89c0.52-0.5,1.32-0.55,1.9-0.11l38.18,28.7
			C323.38,341.55,323.41,341.58,323.44,341.61z M324.13,366.7l-15.38-19.96c-0.3-0.39-0.39-0.91-0.22-1.38
			c0.16-0.47,0.55-0.82,1.03-0.94l9.56-2.4l-28.51-21.43l11.62,16.88c0.26,0.38,0.33,0.86,0.19,1.29c-0.14,0.44-0.48,0.78-0.92,0.93
			l-8.9,3.08L324.13,366.7z"/>
	</g>
	<g class="st5">
		<polygon class="st25" points="176.82,378.79 258.48,387.33 242.77,403.06 300.73,425.8 209.55,415.84 222.98,399.81 		"/>
		<path class="st25" d="M259.47,386.24c0.18,0.16,0.31,0.36,0.4,0.6c0.19,0.53,0.05,1.13-0.35,1.53l-14.13,14.15l55.87,21.92
			c0.69,0.26,1.07,1,0.89,1.72c-0.18,0.71-0.85,1.19-1.59,1.11l-91.18-9.96c-0.54-0.06-1-0.41-1.2-0.91
			c-0.2-0.5-0.11-1.07,0.24-1.49l12.19-14.55l-44.4-20.22c-0.66-0.29-1-1.03-0.81-1.72c0.19-0.69,0.85-1.15,1.57-1.08l81.66,8.54
			C258.95,385.9,259.24,386.04,259.47,386.24z M241.78,404.15c-0.23-0.21-0.39-0.48-0.45-0.79c-0.1-0.49,0.05-0.99,0.4-1.34
			l13.54-13.55l-69.63-7.28l37.95,17.28c0.42,0.19,0.72,0.57,0.83,1.01c0.1,0.45-0.01,0.92-0.31,1.27l-11.67,13.93l77.49,8.47
			l-47.7-18.71C242.06,404.37,241.91,404.27,241.78,404.15z"/>
	</g>
	<g class="st5">
		<g>
			<g>
				<g>
					<g>
						<line x1="303.8" y1="1006.23" x2="303.8" y2="1024.46"/>
						<path d="M303.8,1026.52c-1.14,0-2.06-0.92-2.06-2.06v-18.23c0-1.14,0.92-2.06,2.06-2.06c1.14,0,2.06,0.92,2.06,2.06v18.23
							C305.86,1025.6,304.94,1026.52,303.8,1026.52z"/>
					</g>
					<g>
						<line x1="303.8" y1="1053.04" x2="303.8" y2="1071.27"/>
						<path d="M303.8,1073.33c-1.14,0-2.06-0.92-2.06-2.06v-18.23c0-1.14,0.92-2.06,2.06-2.06c1.14,0,2.06,0.92,2.06,2.06v18.23
							C305.86,1072.41,304.94,1073.33,303.8,1073.33z"/>
					</g>
				</g>
				<g>
					<g>
						<line x1="336.32" y1="1038.75" x2="318.09" y2="1038.75"/>
						<path d="M336.32,1040.81h-18.23c-1.14,0-2.06-0.92-2.06-2.06c0-1.14,0.92-2.06,2.06-2.06h18.23c1.14,0,2.06,0.92,2.06,2.06
							C338.38,1039.89,337.45,1040.81,336.32,1040.81z"/>
					</g>
					<g>
						<line x1="289.51" y1="1038.75" x2="271.28" y2="1038.75"/>
						<path d="M289.51,1040.81h-18.23c-1.14,0-2.06-0.92-2.06-2.06c0-1.14,0.92-2.06,2.06-2.06h18.23c1.14,0,2.06,0.92,2.06,2.06
							C291.57,1039.89,290.64,1040.81,289.51,1040.81z"/>
					</g>
				</g>
				<g>
					<g>
						<line x1="280.8" y1="1061.75" x2="293.69" y2="1048.86"/>
						<path d="M280.8,1063.81c-0.53,0-1.05-0.2-1.46-0.6c-0.8-0.8-0.8-2.11,0-2.91l12.89-12.89c0.8-0.8,2.11-0.8,2.91,0
							c0.8,0.8,0.8,2.11,0,2.91l-12.89,12.89C281.86,1063.6,281.33,1063.81,280.8,1063.81z"/>
					</g>
					<g>
						<line x1="313.9" y1="1028.65" x2="326.79" y2="1015.76"/>
						<path d="M313.9,1030.7c-0.53,0-1.05-0.2-1.46-0.6c-0.8-0.8-0.8-2.11,0-2.91l12.89-12.89c0.8-0.8,2.11-0.8,2.91,0
							c0.8,0.8,0.8,2.11,0,2.91l-12.89,12.89C314.95,1030.5,314.43,1030.7,313.9,1030.7z"/>
					</g>
				</g>
				<g>
					<g>
						<line x1="280.8" y1="1015.76" x2="293.69" y2="1028.65"/>
						<path d="M293.69,1030.7c-0.53,0-1.05-0.2-1.46-0.6l-12.89-12.89c-0.8-0.8-0.8-2.11,0-2.91c0.8-0.8,2.11-0.8,2.91,0
							l12.89,12.89c0.8,0.8,0.8,2.11,0,2.91C294.75,1030.5,294.22,1030.7,293.69,1030.7z"/>
					</g>
					<g>
						<line x1="313.9" y1="1048.86" x2="326.79" y2="1061.75"/>
						<path d="M326.79,1063.81c-0.53,0-1.05-0.2-1.46-0.6l-12.89-12.89c-0.8-0.8-0.8-2.11,0-2.91c0.8-0.8,2.11-0.8,2.91,0
							l12.89,12.89c0.8,0.8,0.8,2.11,0,2.91C327.84,1063.6,327.32,1063.81,326.79,1063.81z"/>
					</g>
				</g>
			</g>
			<g>
				<g>
					<g>
						<line x1="191.65" y1="594.21" x2="191.65" y2="612.43"/>
						<path d="M191.65,614.49c-1.14,0-2.06-0.92-2.06-2.06v-18.23c0-1.14,0.92-2.06,2.06-2.06c1.14,0,2.06,0.92,2.06,2.06v18.23
							C193.71,613.57,192.79,614.49,191.65,614.49z"/>
					</g>
					<g>
						<line x1="191.65" y1="641.02" x2="191.65" y2="659.24"/>
						<path d="M191.65,661.3c-1.14,0-2.06-0.92-2.06-2.06v-18.23c0-1.14,0.92-2.06,2.06-2.06c1.14,0,2.06,0.92,2.06,2.06v18.23
							C193.71,660.38,192.79,661.3,191.65,661.3z"/>
					</g>
				</g>
				<g>
					<g>
						<line x1="224.17" y1="626.72" x2="205.94" y2="626.72"/>
						<path d="M224.17,628.78h-18.23c-1.14,0-2.06-0.92-2.06-2.06c0-1.14,0.92-2.06,2.06-2.06h18.23c1.14,0,2.06,0.92,2.06,2.06
							C226.23,627.86,225.31,628.78,224.17,628.78z"/>
					</g>
					<g>
						<line x1="177.36" y1="626.72" x2="159.13" y2="626.72"/>
						<path d="M177.36,628.78h-18.23c-1.14,0-2.06-0.92-2.06-2.06c0-1.14,0.92-2.06,2.06-2.06h18.23c1.14,0,2.06,0.92,2.06,2.06
							C179.42,627.86,178.5,628.78,177.36,628.78z"/>
					</g>
				</g>
				<g>
					<g>
						<line x1="168.66" y1="649.72" x2="181.55" y2="636.83"/>
						<path d="M168.66,651.78c-0.53,0-1.05-0.2-1.46-0.6c-0.8-0.8-0.8-2.11,0-2.91l12.89-12.89c0.8-0.8,2.11-0.8,2.91,0
							c0.8,0.8,0.8,2.11,0,2.91l-12.89,12.89C169.71,651.58,169.19,651.78,168.66,651.78z"/>
					</g>
					<g>
						<line x1="201.76" y1="616.62" x2="214.65" y2="603.73"/>
						<path d="M201.76,618.68c-0.53,0-1.05-0.2-1.46-0.6c-0.8-0.8-0.8-2.11,0-2.91l12.89-12.89c0.8-0.8,2.11-0.8,2.91,0
							c0.8,0.8,0.8,2.11,0,2.91l-12.89,12.89C202.81,618.48,202.28,618.68,201.76,618.68z"/>
					</g>
				</g>
				<g>
					<g>
						<line x1="168.66" y1="603.73" x2="181.55" y2="616.62"/>
						<path d="M181.55,618.68c-0.53,0-1.05-0.2-1.46-0.6l-12.89-12.89c-0.8-0.8-0.8-2.11,0-2.91c0.8-0.8,2.11-0.8,2.91,0L183,615.16
							c0.8,0.8,0.8,2.11,0,2.91C182.6,618.48,182.08,618.68,181.55,618.68z"/>
					</g>
					<g>
						<line x1="201.76" y1="636.83" x2="214.65" y2="649.72"/>
						<path d="M214.65,651.78c-0.53,0-1.05-0.2-1.46-0.6l-12.89-12.89c-0.8-0.8-0.8-2.11,0-2.91c0.8-0.8,2.11-0.8,2.91,0
							l12.89,12.89c0.8,0.8,0.8,2.11,0,2.91C215.7,651.58,215.17,651.78,214.65,651.78z"/>
					</g>
				</g>
			</g>
			<g>
				<g>
					<g>
						<line x1="460.76" y1="179.1" x2="460.76" y2="197.33"/>
						<path d="M460.76,199.39c-1.14,0-2.06-0.92-2.06-2.06V179.1c0-1.14,0.92-2.06,2.06-2.06s2.06,0.92,2.06,2.06v18.23
							C462.82,198.47,461.9,199.39,460.76,199.39z"/>
					</g>
					<g>
						<line x1="460.76" y1="225.92" x2="460.76" y2="244.14"/>
						<path d="M460.76,246.2c-1.14,0-2.06-0.92-2.06-2.06v-18.23c0-1.14,0.92-2.06,2.06-2.06s2.06,0.92,2.06,2.06v18.23
							C462.82,245.28,461.9,246.2,460.76,246.2z"/>
					</g>
				</g>
				<g>
					<g>
						<line x1="493.28" y1="211.62" x2="475.05" y2="211.62"/>
						<path d="M493.28,213.68h-18.23c-1.14,0-2.06-0.92-2.06-2.06c0-1.14,0.92-2.06,2.06-2.06h18.23c1.14,0,2.06,0.92,2.06,2.06
							C495.34,212.76,494.42,213.68,493.28,213.68z"/>
					</g>
					<g>
						<line x1="446.47" y1="211.62" x2="428.24" y2="211.62"/>
						<path d="M446.47,213.68h-18.23c-1.14,0-2.06-0.92-2.06-2.06c0-1.14,0.92-2.06,2.06-2.06h18.23c1.14,0,2.06,0.92,2.06,2.06
							C448.53,212.76,447.6,213.68,446.47,213.68z"/>
					</g>
				</g>
				<g>
					<g>
						<line x1="437.76" y1="234.62" x2="450.65" y2="221.73"/>
						<path d="M437.76,236.68c-0.53,0-1.05-0.2-1.46-0.6c-0.8-0.8-0.8-2.11,0-2.91l12.89-12.89c0.8-0.8,2.11-0.8,2.91,0
							c0.8,0.8,0.8,2.11,0,2.91l-12.89,12.89C438.82,236.48,438.29,236.68,437.76,236.68z"/>
					</g>
					<g>
						<line x1="470.86" y1="201.52" x2="483.75" y2="188.63"/>
						<path d="M470.86,203.58c-0.53,0-1.05-0.2-1.46-0.6c-0.8-0.8-0.8-2.11,0-2.91l12.89-12.89c0.8-0.8,2.11-0.8,2.91,0
							c0.8,0.8,0.8,2.11,0,2.91l-12.89,12.89C471.91,203.38,471.39,203.58,470.86,203.58z"/>
					</g>
				</g>
				<g>
					<g>
						<line x1="437.76" y1="188.63" x2="450.65" y2="201.52"/>
						<path d="M450.65,203.58c-0.53,0-1.05-0.2-1.46-0.6l-12.89-12.89c-0.8-0.8-0.8-2.11,0-2.91c0.8-0.8,2.11-0.8,2.91,0
							l12.89,12.89c0.8,0.8,0.8,2.11,0,2.91C451.71,203.38,451.18,203.58,450.65,203.58z"/>
					</g>
					<g>
						<line x1="470.86" y1="221.73" x2="483.75" y2="234.62"/>
						<path d="M483.75,236.68c-0.53,0-1.05-0.2-1.46-0.6l-12.89-12.89c-0.8-0.8-0.8-2.11,0-2.91c0.8-0.8,2.11-0.8,2.91,0
							l12.89,12.89c0.8,0.8,0.8,2.11,0,2.91C484.8,236.48,484.28,236.68,483.75,236.68z"/>
					</g>
				</g>
			</g>
			<g>
				<g>
					<g>
						<line x1="971.96" y1="611.51" x2="971.96" y2="629.73"/>
						<path d="M971.97,631.79c-1.14,0-2.06-0.92-2.06-2.06v-18.23c0-1.14,0.92-2.06,2.06-2.06s2.06,0.92,2.06,2.06v18.23
							C974.02,630.87,973.1,631.79,971.97,631.79z"/>
					</g>
					<g>
						<line x1="971.96" y1="658.32" x2="971.96" y2="676.54"/>
						<path d="M971.97,678.6c-1.14,0-2.06-0.92-2.06-2.06v-18.23c0-1.14,0.92-2.06,2.06-2.06s2.06,0.92,2.06,2.06v18.23
							C974.02,677.68,973.1,678.6,971.97,678.6z"/>
					</g>
				</g>
				<g>
					<g>
						<line x1="1004.48" y1="644.03" x2="986.26" y2="644.03"/>
						<path d="M1004.48,646.08h-18.23c-1.14,0-2.06-0.92-2.06-2.06c0-1.14,0.92-2.06,2.06-2.06h18.23c1.14,0,2.06,0.92,2.06,2.06
							C1006.54,645.16,1005.62,646.08,1004.48,646.08z"/>
					</g>
					<g>
						<line x1="957.67" y1="644.03" x2="939.45" y2="644.03"/>
						<path d="M957.67,646.08h-18.23c-1.14,0-2.06-0.92-2.06-2.06c0-1.14,0.92-2.06,2.06-2.06h18.23c1.14,0,2.06,0.92,2.06,2.06
							C959.73,645.16,958.81,646.08,957.67,646.08z"/>
					</g>
				</g>
				<g>
					<g>
						<line x1="948.97" y1="667.02" x2="961.86" y2="654.13"/>
						<path d="M948.97,669.08c-0.53,0-1.05-0.2-1.46-0.6c-0.8-0.8-0.8-2.11,0-2.91l12.89-12.89c0.8-0.8,2.11-0.8,2.91,0
							c0.8,0.8,0.8,2.11,0,2.91l-12.89,12.89C950.02,668.88,949.5,669.08,948.97,669.08z"/>
					</g>
					<g>
						<line x1="982.07" y1="633.92" x2="994.96" y2="621.03"/>
						<path d="M982.07,635.98c-0.53,0-1.05-0.2-1.46-0.6c-0.8-0.8-0.8-2.11,0-2.91l12.89-12.89c0.8-0.8,2.11-0.8,2.91,0
							c0.8,0.8,0.8,2.11,0,2.91l-12.89,12.89C983.12,635.78,982.59,635.98,982.07,635.98z"/>
					</g>
				</g>
				<g>
					<g>
						<line x1="948.97" y1="621.03" x2="961.86" y2="633.92"/>
						<path d="M961.86,635.98c-0.53,0-1.05-0.2-1.46-0.6l-12.89-12.89c-0.8-0.8-0.8-2.11,0-2.91c0.8-0.8,2.11-0.8,2.91,0
							l12.89,12.89c0.8,0.8,0.8,2.11,0,2.91C962.91,635.78,962.39,635.98,961.86,635.98z"/>
					</g>
					<g>
						<line x1="982.07" y1="654.13" x2="994.96" y2="667.02"/>
						<path d="M994.96,669.08c-0.53,0-1.05-0.2-1.46-0.6l-12.89-12.89c-0.8-0.8-0.8-2.11,0-2.91c0.8-0.8,2.11-0.8,2.91,0
							l12.89,12.89c0.8,0.8,0.8,2.11,0,2.91C996.01,668.88,995.48,669.08,994.96,669.08z"/>
					</g>
				</g>
			</g>
		</g>
	</g>
	<path class="st26" d="M803.31,252.29c-0.03-13.59-11.07-24.58-24.66-24.54l-120.38,0.29c-13.59,0.03-24.58,11.08-24.54,24.66
		l0.19,79.68c0.03,13.59,11.08,24.58,24.66,24.54l25.86-0.06l33.12,32.96l32.96-33.12l28.43-0.07
		c13.59-0.03,24.58-11.08,24.54-24.66L803.31,252.29z"/>
	<path class="st5" d="M717.57,391.64c-0.47,0-0.93-0.18-1.28-0.53l-32.59-32.43l-25.11,0.06c-0.02,0-0.04,0-0.07,0
		c-7.03,0-13.65-2.73-18.64-7.69c-5-4.98-7.77-11.61-7.78-18.67l-0.19-79.68c-0.02-7.06,2.71-13.7,7.69-18.7
		c4.98-5,11.6-7.77,18.67-7.78l120.38-0.29c0.02,0,0.04,0,0.07,0c14.53,0,26.38,11.81,26.42,26.36c0,0,0,0,0,0l0.19,79.68
		c0.04,14.57-11.79,26.45-26.36,26.49l-27.68,0.07l-32.43,32.59C718.5,391.46,718.03,391.64,717.57,391.64z M684.44,355.04
		c0.48,0,0.94,0.19,1.28,0.53l31.84,31.68l31.68-31.83c0.34-0.34,0.8-0.53,1.29-0.54l28.43-0.07c12.56-0.03,22.76-10.28,22.73-22.84
		l-0.19-79.68c-0.03-12.54-10.25-22.73-22.78-22.73c-0.02,0-0.04,0-0.06,0l-120.38,0.29c-6.09,0.02-11.8,2.4-16.1,6.71
		c-4.29,4.31-6.65,10.04-6.63,16.12l0.19,79.68c0.01,6.09,2.4,11.8,6.71,16.09c4.3,4.28,10.01,6.63,16.07,6.63c0.02,0,0.04,0,0.06,0
		L684.44,355.04L684.44,355.04z"/>
	<linearGradient id="SVGID_10_" gradientUnits="userSpaceOnUse" x1="693.1336" y1="272.9753" x2="740.2948" y2="320.1364">
		<stop  offset="0" style="stop-color:#FFFFFF"/>
		<stop  offset="0.9413" style="stop-color:#F8F8F8"/>
	</linearGradient>
	<path class="st27" d="M718.97,260.38l8.47,17.16c0.37,0.74,1.08,1.26,1.9,1.38l18.94,2.75c2.07,0.3,2.89,2.84,1.4,4.3l-13.71,13.36
		c-0.59,0.58-0.87,1.41-0.72,2.23l3.24,18.87c0.35,2.06-1.81,3.63-3.66,2.66l-16.94-8.91c-0.73-0.39-1.61-0.39-2.35,0l-16.94,8.91
		c-1.85,0.97-4.01-0.6-3.66-2.66l3.24-18.87c0.14-0.82-0.13-1.65-0.72-2.23l-13.71-13.36c-1.5-1.46-0.67-4,1.4-4.3l18.94-2.75
		c0.82-0.12,1.53-0.63,1.9-1.38l8.47-17.16C715.38,258.51,718.05,258.51,718.97,260.38z"/>
	<path class="st24" d="M697.42,325.21c-0.9,0-1.79-0.28-2.55-0.84c-1.35-0.98-2.01-2.61-1.72-4.25l3.24-18.86
		c0.04-0.23-0.04-0.46-0.2-0.62l-13.71-13.36c-1.19-1.16-1.61-2.87-1.1-4.45c0.52-1.58,1.86-2.72,3.51-2.95l18.94-2.75
		c0.23-0.03,0.43-0.18,0.53-0.38l8.47-17.16c0.74-1.49,2.23-2.42,3.89-2.42c1.67,0,3.16,0.93,3.89,2.42l8.47,17.16
		c0.1,0.21,0.3,0.35,0.52,0.38l18.95,2.75c1.65,0.24,2.99,1.37,3.5,2.96c0.52,1.58,0.09,3.29-1.1,4.45l-13.71,13.36
		c-0.16,0.16-0.24,0.39-0.2,0.62l3.24,18.87c0.28,1.64-0.38,3.27-1.73,4.25c-1.34,0.98-3.1,1.11-4.57,0.33l-16.94-8.91
		c-0.2-0.11-0.45-0.11-0.65,0l-16.95,8.91C698.8,325.04,698.11,325.21,697.42,325.21z M716.71,260.8c-0.16,0-0.46,0.05-0.63,0.39
		l-8.47,17.16c-0.63,1.28-1.85,2.17-3.27,2.37l-18.94,2.75c-0.38,0.05-0.52,0.32-0.57,0.48c-0.05,0.15-0.09,0.45,0.18,0.72
		l13.71,13.36c1.02,0.99,1.49,2.43,1.25,3.84l-3.24,18.87c-0.07,0.37,0.15,0.59,0.27,0.68c0.13,0.09,0.4,0.23,0.74,0.05l16.95-8.91
		c1.26-0.67,2.78-0.66,4.04,0l16.94,8.91c0.34,0.17,0.61,0.04,0.74-0.05c0.13-0.1,0.34-0.31,0.28-0.68l-3.24-18.87
		c-0.24-1.4,0.22-2.84,1.25-3.84l13.71-13.36c0.27-0.26,0.23-0.56,0.17-0.72c-0.05-0.15-0.19-0.42-0.57-0.48l-18.94-2.75
		c-1.41-0.2-2.63-1.09-3.26-2.37l-8.47-17.16l0,0C717.18,260.85,716.88,260.8,716.71,260.8z"/>
	<rect x="170.22" y="-606.32" class="st28" width="826.66" height="1686.38"/>
</g>
</svg>
